<?xml version="1.0" encoding="UTF-8" standalone="no"?>
<!DOCTYPE svg PUBLIC "-//W3C//DTD SVG 1.1//EN" "http://www.w3.org/Graphics/SVG/1.1/DTD/svg11.dtd">
<!-- Generated by Microsoft Visio, SVG Export EA.svg Page-1 -->
<svg xmlns="http://www.w3.org/2000/svg" xmlns:xlink="http://www.w3.org/1999/xlink" xmlns:ev="http://www.w3.org/2001/xml-events"
		xmlns:v="http://schemas.microsoft.com/visio/2003/SVGExtensions/" width="5.54979in" height="4.61719in"
		viewBox="0 0 399.585 332.437" xml:space="preserve" color-interpolation-filters="sRGB" class="st7">
	<v:documentProperties v:langID="1033" v:metric="true" v:viewMarkup="false">
		<v:userDefs>
			<v:ud v:nameU="msvNoAutoConnect" v:val="VT0(1):26"/>
		</v:userDefs>
	</v:documentProperties>

	<style type="text/css">
	<![CDATA[
		.st1 {marker-end:url(#mrkr5-6);stroke:#000000;stroke-linecap:round;stroke-linejoin:round;stroke-width:1}
		.st2 {fill:#000000;fill-opacity:1;stroke:#000000;stroke-opacity:1;stroke-width:0.28409090909091}
		.st3 {fill:#595959;stroke:none;stroke-linecap:butt;stroke-width:0.75}
		.st4 {fill:#ffffff;stroke:#000000;stroke-linecap:round;stroke-linejoin:round;stroke-width:0.75}
		.st5 {fill:#000000;font-family:Calibri;font-size:1.00001em}
		.st6 {fill:#7f7f7f;stroke:none;stroke-linecap:butt;stroke-width:0.75}
		.st7 {fill:none;fill-rule:evenodd;font-size:12px;overflow:visible;stroke-linecap:square;stroke-miterlimit:3}
	]]>
	</style>

	<defs id="Markers">
		<g id="lend5">
			<path d="M 2 1 L 0 0 L 1.98117 -0.993387 C 1.67173 -0.364515 1.67301 0.372641 1.98465 1.00043 " style="stroke:none"/>
		</g>
		<marker id="mrkr5-6" class="st2" v:arrowType="5" v:arrowSize="2" v:setback="6.16" refX="-6.16" orient="auto"
				markerUnits="strokeWidth" overflow="visible">
			<use xlink:href="#lend5" transform="scale(-3.52,-3.52) "/>
		</marker>
	</defs>
	<g v:mID="0" v:index="1" v:groupContext="foregroundPage">
		<title>Page-1</title>
		<v:pageProperties v:drawingScale="0.0393701" v:pageScale="0.0393701" v:drawingUnits="24" v:shadowOffsetX="8.50394"
				v:shadowOffsetY="-8.50394"/>
		<v:layer v:name="Connector" v:index="0"/>
		<g id="shape5-1" v:mID="5" v:groupContext="shape" v:layerMember="0" transform="translate(192.706,-273.152)">
			<title>Dynamic connector</title>
			<path d="M7.09 332.44 L7.09 367.95" class="st1"/>
		</g>
		<g id="shape7-7" v:mID="7" v:groupContext="shape" v:layerMember="0" transform="translate(57.0679,-193.782)">
			<title>Dynamic connector.7</title>
			<path d="M7.09 332.44 L7.09 381.61" class="st1"/>
		</g>
		<g id="shape10-12" v:mID="10" v:groupContext="shape" v:layerMember="0" transform="translate(109.934,-111.01)">
			<title>Dynamic connector.10</title>
			<path d="M0 325.35 L37.92 325.35" class="st1"/>
		</g>
		<g id="shape13-17" v:mID="13" v:groupContext="shape" v:layerMember="0" transform="translate(245.572,-109.509)">
			<title>Dynamic connector.13</title>
			<path d="M0 325.35 L37.92 325.35" class="st1"/>
		</g>
		<g id="shape15-22" v:mID="15" v:groupContext="shape" v:layerMember="0" transform="translate(328.344,-135.446)">
			<title>Dynamic connector.15</title>
			<path d="M7.09 332.44 L7.09 280.26" class="st1"/>
		</g>
		<g id="shape17-27" v:mID="17" v:groupContext="shape" v:layerMember="0" transform="translate(289.651,-205.546)">
			<title>Dynamic connector.17</title>
			<path d="M0 325.35 L-37.92 325.35" class="st1"/>
		</g>
		<g id="shape18-32" v:mID="18" v:groupContext="shape" v:layerMember="0" transform="translate(154.013,-205.546)">
			<title>Dynamic connector.18</title>
			<path d="M0 325.35 L-37.92 325.35" class="st1"/>
		</g>
		<g id="shape33-37" v:mID="33" v:groupContext="shape" v:layerMember="0" transform="translate(57.0679,-100.748)">
			<title>Dynamic connector.33</title>
			<path d="M7.09 332.44 L7.09 370.95" class="st1"/>
		</g>
		<g id="shape31-42" v:mID="31" v:groupContext="shape" transform="translate(215.806,484.245) rotate(180)">
			<title>Rotate left</title>
			<v:userDefs>
				<v:ud v:nameU="msvShapeCategories" v:prompt="" v:val="VT4(Icon)"/>
				<v:ud v:nameU="visVersion" v:prompt="" v:val="VT0(15):26"/>
			</v:userDefs>
			<path d="M30.82 311.44 A15.37 15.1279 -180 0 0 27.53 306.63 A15.4027 15.1601 -180 0 0 22.65 303.4 A15.3123 15.0711 -180
						 0 0 16.67 302.21 A15.3233 15.082 -180 0 0 10.69 303.4 A15.1423 14.9039 -180 0 0 7.48 305.24 L6.54 304.06
						 L3.61 300.41 L3.04 300.53 L0 313.39 L0.52 314.05 L13.93 314.13 L14.19 313.61 L11.25 309.94 L10.43 308.91
						 A10.3758 10.2124 0 0 1 12.54 307.68 A10.5719 10.4054 0 0 1 16.67 306.86 A10.5762 10.4097 0 0 1 20.81 307.68
						 A10.6612 10.4933 0 0 1 24.19 309.93 A10.6711 10.503 0 0 1 26.46 313.25 A10.5515 10.3854 0 0 1 27.3 317.32
						 A10.5559 10.3896 0 0 1 26.46 321.39 A10.6384 10.4709 0 0 1 24.19 324.72 A10.6711 10.503 0 0 1 20.81 326.96
						 A10.5559 10.3896 0 0 1 16.67 327.79 A10.5515 10.3854 0 0 1 12.54 326.96 A10.6516 10.4838 0 0 1 9.16 324.72
						 L5.81 328.01 A15.37 15.1279 -180 0 0 10.69 331.25 A15.3021 15.0611 -180 0 0 16.67 332.44 A15.3123 15.0711
						 -180 0 0 22.65 331.25 A15.3831 15.1409 -180 0 0 27.53 328.01 A15.3831 15.1409 -180 0 0 30.82 323.21 A15.3123
						 15.0711 -180 0 0 32.03 317.32 A15.3064 15.0654 -180 0 0 30.82 311.44 Z" class="st3"/>
		</g>
		<g id="group39-44" transform="translate(154.013,-273.152)" v:mID="39" v:groupContext="group">
			<title>Sheet.39</title>
			<g id="shape1-45" v:mID="1" v:groupContext="shape">
				<title>Sheet.1</title>
				<desc>Initial Population</desc>
				<v:textBlock v:margins="rect(4,4,4,4)" v:tabSpace="42.5197"/>
				<v:textRect cx="45.7795" cy="312.17" width="91.56" height="40.5354"/>
				<rect x="0" y="291.902" width="91.5591" height="40.5354" rx="5.66929" ry="5.66929" class="st4"/>
				<text x="4.22" y="315.77" class="st5" v:langID="1033"><v:paragraph v:horizAlign="1"/><v:tabList/>Initial Population</text>			</g>
			<g id="shape25-48" v:mID="25" v:groupContext="shape" transform="translate(75.4016,-24.3779)">
				<title>New</title>
				<v:userDefs>
					<v:ud v:nameU="msvShapeCategories" v:prompt="" v:val="VT4(Icon)"/>
					<v:ud v:nameU="visVersion" v:prompt="" v:val="VT0(15):26"/>
				</v:userDefs>
				<path d="M16.16 324.36 L12.02 322.73 L13.79 318.65 L9.71 320.42 L8.08 316.28 L6.45 320.42 L2.37 318.65 L4.14 322.73
							 L0 324.36 L4.14 325.99 L2.37 330.07 L6.45 328.3 L8.08 332.44 L9.71 328.3 L13.79 330.07 L12.02 325.99
							 L16.16 324.36 ZM9.15 326.96 C9.15 326.96 8.42 328.83 8.08 329.68 C7.74 328.83 7 326.96 7 326.96 C7 326.96
							 5.16 327.76 4.31 328.13 C4.68 327.28 5.48 325.43 5.48 325.43 C5.48 325.43 3.61 324.7 2.75 324.36 C3.61
							 324.02 5.48 323.28 5.48 323.28 C5.48 323.28 4.68 321.44 4.31 320.59 C5.16 320.96 7 321.76 7 321.76 C7
							 321.76 7.74 319.89 8.08 319.03 C8.42 319.89 9.15 321.76 9.15 321.76 C9.15 321.76 11 320.96 11.84 320.59
							 C11.48 321.44 10.68 323.28 10.68 323.28 C10.68 323.28 12.55 324.02 13.4 324.36 C12.55 324.7 10.68 325.43
							 10.68 325.43 C10.68 325.43 11.48 327.28 11.84 328.12 C11 327.76 9.15 326.96 9.15 326.96 Z" class="st3"/>
			</g>
		</g>
		<g id="group40-50" transform="translate(289.651,-193.782)" v:mID="40" v:groupContext="group">
			<title>Sheet.40</title>
			<g id="shape14-51" v:mID="14" v:groupContext="shape">
				<title>Sheet.14</title>
				<desc>Mutation</desc>
				<v:textBlock v:margins="rect(4,4,4,4)" v:tabSpace="42.5197"/>
				<v:textRect cx="45.7795" cy="313.587" width="91.56" height="37.7008"/>
				<rect x="0" y="294.737" width="91.5591" height="37.7008" rx="5.66929" ry="5.66929" class="st4"/>
				<text x="22.91" y="317.19" class="st5" v:langID="1033"><v:paragraph v:horizAlign="1"/><v:tabList/>Mutation</text>			</g>
			<g id="shape30-54" v:mID="30" v:groupContext="shape" transform="translate(75.9685,-22.1102)">
				<title>Crop</title>
				<v:userDefs>
					<v:ud v:nameU="msvShapeCategories" v:prompt="" v:val="VT4(Icon)"/>
					<v:ud v:nameU="visVersion" v:prompt="" v:val="VT0(15):26"/>
				</v:userDefs>
				<path d="M14.17 327.57 L11.07 327.57 L11.07 321.36 L4.87 321.36 L4.87 318.26 L3.1 318.26 L3.1 321.36 L0 321.36 L0
							 323.14 L3.1 323.14 L3.1 329.34 L9.3 329.34 L9.3 332.44 L11.07 332.44 L11.07 329.34 L14.17 329.34 L14.17
							 327.57 ZM4.87 327.57 L4.87 323.14 L9.3 323.14 L9.3 327.57 L4.87 327.57 Z" class="st3"/>
			</g>
		</g>
		<g id="group41-56" transform="translate(154.013,-193.782)" v:mID="41" v:groupContext="group">
			<title>Sheet.41</title>
		</g>
		<g id="group42-57" transform="translate(18.375,-193.782)" v:mID="42" v:groupContext="group">
			<title>Sheet.42</title>
			<g id="shape2-58" v:mID="2" v:groupContext="shape">
				<title>Sheet.2</title>
				<desc>Selection</desc>
				<v:textBlock v:margins="rect(4,4,4,4)" v:tabSpace="42.5197"/>
				<v:textRect cx="45.7795" cy="313.587" width="91.56" height="37.7008"/>
				<rect x="0" y="294.737" width="91.5591" height="37.7008" rx="5.66929" ry="5.66929" class="st4"/>
				<text x="23.43" y="317.19" class="st5" v:langID="1033"><v:paragraph v:horizAlign="1"/><v:tabList/>Selection</text>			</g>
			<g id="shape23-61" v:mID="23" v:groupContext="shape" transform="translate(72.9921,-19.559)">
				<title>Filter</title>
				<v:userDefs>
					<v:ud v:nameU="msvShapeCategories" v:prompt="" v:val="VT4(Icon)"/>
					<v:ud v:nameU="visVersion" v:prompt="" v:val="VT0(15):26"/>
				</v:userDefs>
				<path d="M15.15 319.31 L15.15 318.65 C14.75 318.15 12.13 317.29 8.08 317.29 C4.03 317.29 1.41 318.15 1.01 318.65
							 L1.01 319.31 C2.39 320 5.04 320.47 8.08 320.47 C11.12 320.47 13.77 320 15.15 319.31 ZM9.09 325.91 C9.09
							 325.91 12.69 322.05 14.36 320.26 C12.88 320.77 10.62 321.1 8.08 321.1 C5.54 321.1 3.28 320.77 1.8 320.26
							 C3.47 322.05 7.07 325.91 7.07 325.91 C7.07 325.91 7.07 330.98 7.07 331.27 C7.19 331.33 7.47 331.43 8.08
							 331.43 C8.68 331.43 8.97 331.33 9.09 331.27 C9.09 330.98 9.09 325.91 9.09 325.91 ZM16.16 318.53 C16.16
							 318.54 16.15 318.54 16.15 318.55 L16.16 318.55 L16.16 319.81 L10.1 326.31 L10.1 331.43 C10.1 331.98
							 9.47 332.44 8.08 332.44 C6.68 332.44 6.06 331.98 6.06 331.43 L6.06 326.31 L0 319.81 L0 318.55 L0 318.55
							 C0 318.54 0 318.54 0 318.53 C0 317.29 3.62 316.28 8.08 316.28 C12.54 316.28 16.16 317.29 16.16 318.53
							 Z" class="st6"/>
			</g>
		</g>
		<g id="group44-63" transform="translate(154.013,-97.7451)" v:mID="44" v:groupContext="group">
			<title>Sheet.44</title>
		</g>
		<g id="group45-64" transform="translate(289.651,-97.7451)" v:mID="45" v:groupContext="group">
			<title>Sheet.45</title>
			<g id="shape12-65" v:mID="12" v:groupContext="shape">
				<title>Sheet.12</title>
				<desc>Recombination</desc>
				<v:textBlock v:margins="rect(4,4,4,4)" v:tabSpace="42.5197"/>
				<v:textRect cx="45.7795" cy="313.587" width="91.56" height="37.7008"/>
				<rect x="0" y="294.737" width="91.5591" height="37.7008" rx="5.66929" ry="5.66929" class="st4"/>
				<text x="8.78" y="317.19" class="st5" v:langID="1033"><v:paragraph v:horizAlign="1"/><v:tabList/>Recombination</text>			</g>
			<g id="shape29-68" v:mID="29" v:groupContext="shape" transform="translate(78.0443,-24.1561)">
				<title>Shuffle</title>
				<v:userDefs>
					<v:ud v:nameU="msvShapeCategories" v:prompt="" v:val="VT4(Icon)"/>
					<v:ud v:nameU="visVersion" v:prompt="" v:val="VT0(15):26"/>
				</v:userDefs>
				<path d="M9.22 323.74 L10.68 323.74 L8.47 321.13 L6.26 323.74 L7.79 323.74 A19.4624 19.1559 -180 0 0 1.33 332.44
							 L2.85 332.44 A49.8577 49.0725 0 0 1 9.22 323.74 ZM3.12 327.17 A8.33027 8.19908 0 0 1 4.72 326.5 L4.73
							 326.5 A3.09364 3.04492 0 0 1 2.89 323.74 L4.42 323.74 L2.21 321.13 L0 323.74 L1.46 323.74 A3.95331 3.89105
							 -180 0 0 3.12 327.17 ZM7.56 327.68 A8.32111 8.19007 0 0 1 6.13 328.21 L5.96 328.26 A4.02977 3.96631
							 0 0 1 7.83 332.44 L9.35 332.44 A5.21024 5.12819 -180 0 0 7.56 327.68 Z" class="st3"/>
			</g>
		</g>
		<g id="group47-70" transform="translate(154.013,-97.7451)" v:mID="47" v:groupContext="group">
			<title>Sheet.47</title>
			<g id="shape9-71" v:mID="9" v:groupContext="shape">
				<title>Sheet.9</title>
				<desc>Parent Selection</desc>
				<v:textBlock v:margins="rect(4,4,4,4)" v:tabSpace="42.5197"/>
				<v:textRect cx="45.7795" cy="313.587" width="91.56" height="37.7008"/>
				<rect x="0" y="294.737" width="91.5591" height="37.7008" rx="5.66929" ry="5.66929" class="st4"/>
				<text x="5.87" y="317.19" class="st5" v:langID="1033"><v:paragraph v:horizAlign="1"/><v:tabList/>Parent Selection</text>			</g>
			<g id="shape20-74" v:mID="20" v:groupContext="shape" transform="translate(75.5433,-24.6037)">
				<title>Users</title>
				<v:userDefs>
					<v:ud v:nameU="msvShapeCategories" v:prompt="" v:val="VT4(Icon)"/>
					<v:ud v:nameU="visVersion" v:prompt="" v:val="VT0(15):26"/>
				</v:userDefs>
				<path d="M9.97 324.79 A1.45604 1.47933 -180 0 0 11.42 323.32 A1.45604 1.47933 -180 0 0 9.97 321.84 A1.45658 1.47989
							 -180 0 0 8.51 323.32 A1.45686 1.48016 -180 0 0 9.97 324.79 ZM9.97 321.1 A2.1821 2.21701 0 0 1 12.15
							 323.32 A2.1821 2.21701 0 0 1 9.97 325.53 A2.18201 2.21692 0 0 1 7.79 323.32 A2.18201 2.21692 0 0 1 9.97
							 321.1 ZM3.64 331.59 A2.54288 2.58356 -180 0 0 6.55 330.11 A3.19898 3.25016 -180 0 0 5.16 327.24 L3.64
							 330.26 A5436.24 5523.22 0 0 1 2.13 327.24 A3.19933 3.25052 -180 0 0 0.74 330.11 A2.54259 2.58327 -180
							 0 0 3.64 331.59 ZM5.08 326.33 A3.83396 3.89531 0 0 1 7.28 330.11 A2.90555 2.95204 0 0 1 3.64 332.32
							 A2.90532 2.9518 0 0 1 0.01 330.11 A3.83558 3.89695 0 0 1 2.21 326.33 A2.61171 2.6535 -180 0 0 2.6 326.55
							 L3.64 328.63 L4.68 326.55 A2.57179 2.61294 -180 0 0 5.08 326.33 ZM11.41 325.45 A3.83396 3.89531 0 0
							 1 13.61 329.23 A2.90555 2.95204 0 0 1 9.97 331.45 A5.79186 5.88453 0 0 1 7.54 331 A2.20792 2.24324 -180
							 0 0 7.7 330.25 A5.01331 5.09353 -180 0 0 9.97 330.71 A2.54288 2.58356 -180 0 0 12.88 329.23 A3.19822
							 3.24939 -180 0 0 11.48 326.36 A6843.74 6953.24 -180 0 0 9.97 329.38 A7616.91 7738.78 0 0 1 8.46 326.36
							 A2.89905 2.94544 -180 0 0 7.26 327.94 A4.11739 4.18327 -180 0 0 6.79 327.15 A3.42214 3.47689 0 0 1 8.53
							 325.45 A2.61171 2.6535 -180 0 0 8.93 325.67 L9.97 327.75 L11.01 325.67 A2.57179 2.61294 -180 0 0 11.41
							 325.45 ZM3.64 325.67 A1.45576 1.47906 -180 0 0 5.1 324.19 A1.45604 1.47933 -180 0 0 3.64 322.72 A1.45658
							 1.47989 -180 0 0 2.19 324.19 A1.45686 1.48016 -180 0 0 3.64 325.67 ZM3.64 321.98 A2.1821 2.21701 0 0
							 1 5.83 324.19 A2.1821 2.21701 0 0 1 3.64 326.41 A2.18201 2.21692 0 0 1 1.46 324.19 A2.18201 2.21692
							 0 0 1 3.64 321.98 Z" class="st3"/>
			</g>
		</g>
		<g id="group49-76" transform="translate(18.375,-100.748)" v:mID="49" v:groupContext="group">
			<title>Sheet.49</title>
			<g id="shape6-77" v:mID="6" v:groupContext="shape">
				<title>Sheet.6</title>
				<desc>Stop Conditions</desc>
				<v:textBlock v:margins="rect(4,4,4,4)" v:tabSpace="42.5197"/>
				<v:textRect cx="45.7795" cy="313.587" width="91.56" height="37.7008"/>
				<rect x="0" y="294.737" width="91.5591" height="37.7008" rx="5.66929" ry="5.66929" class="st4"/>
				<text x="7.24" y="317.19" class="st5" v:langID="1033"><v:paragraph v:horizAlign="1"/><v:tabList/>Stop Conditions</text>			</g>
			<g id="shape28-80" v:mID="28" v:groupContext="shape" transform="translate(79.1711,-24.4357)">
				<title>Next</title>
				<v:userDefs>
					<v:ud v:nameU="msvShapeCategories" v:prompt="" v:val="VT4(Icon)"/>
					<v:ud v:nameU="visVersion" v:prompt="" v:val="VT0(15):26"/>
				</v:userDefs>
				<path d="M8.9 332.44 L6.28 332.44 L6.28 321.1 L8.9 321.1 L8.9 332.44 ZM0.52 321.1 L0 321.1 L0 332.44 L0.52 332.44
							 L6.28 326.77 L0.52 321.1 Z" class="st3"/>
			</g>
		</g>
		<g id="group51-82" transform="translate(154.013,-193.782)" v:mID="51" v:groupContext="group">
			<title>Sheet.51</title>
			<g id="shape16-83" v:mID="16" v:groupContext="shape">
				<title>Sheet.16</title>
				<desc>Evaluation</desc>
				<v:textBlock v:margins="rect(4,4,4,4)" v:tabSpace="42.5197"/>
				<v:textRect cx="45.7795" cy="313.587" width="91.56" height="37.7008"/>
				<rect x="0" y="294.737" width="91.5591" height="37.7008" rx="5.66929" ry="5.66929" class="st4"/>
				<text x="20.16" y="317.19" class="st5" v:langID="1033"><v:paragraph v:horizAlign="1"/><v:tabList/>Evaluation</text>			</g>
			<g id="shape24-86" v:mID="24" v:groupContext="shape" transform="translate(76.5354,-23.1023)">
				<title>Configure</title>
				<v:userDefs>
					<v:ud v:nameU="msvShapeCategories" v:prompt="" v:val="VT4(Icon)"/>
					<v:ud v:nameU="visVersion" v:prompt="" v:val="VT0(15):26"/>
				</v:userDefs>
				<path d="M12.09 327.53 C11.83 327.42 11.02 327.08 11.02 327.07 L11.07 326.39 L11.11 325.82 L11.04 324.73 L11.58 324.42
							 C11.58 324.42 11.85 324.31 12.11 324.21 C11.92 323.76 11.85 323.57 11.66 323.13 C11.41 323.23 10.56
							 323.58 10.56 323.58 L10.14 323.06 C9.94 322.8 9.69 322.57 9.38 322.32 L8.88 321.94 L9.08 321.33 C9.08
							 321.33 9.2 321.05 9.31 320.77 C8.87 320.59 8.68 320.51 8.24 320.33 C8.12 320.61 7.77 321.48 7.77 321.48
							 L7.11 321.41 C6.78 321.38 6.43 321.39 6.08 321.43 L5.46 321.52 L5.17 320.94 C5.17 320.94 5.04 320.64
							 4.92 320.35 C4.47 320.53 4.29 320.61 3.85 320.8 C3.98 321.11 4.35 321.99 4.35 321.99 L3.84 322.41 C3.6
							 322.61 3.38 322.85 3.16 323.14 L2.78 323.63 L2.17 323.44 C2.17 323.44 1.84 323.3 1.51 323.17 C1.34 323.62
							 1.26 323.81 1.08 324.25 C1.41 324.39 2.3 324.74 2.3 324.74 C2.3 324.74 2.24 325.74 2.24 325.82 C2.24
							 325.89 2.25 326.12 2.26 326.12 C2.26 326.12 2.31 326.65 2.31 326.65 L1.99 326.94 C1.89 327.04 1.86 327.06
							 1.07 327.37 C1.24 327.82 1.31 328.01 1.49 328.46 C1.82 328.33 2.74 327.97 2.74 327.97 L3.22 328.62 C3.37
							 328.81 3.57 329.01 3.82 329.22 L4.29 329.62 L4.08 330.2 C4.08 330.2 3.94 330.53 3.8 330.86 C4.24 331.05
							 4.42 331.13 4.87 331.32 C5 331.02 5.38 330.13 5.38 330.13 L6.05 330.22 C6.36 330.27 6.7 330.28 7.06
							 330.25 L7.67 330.19 L7.94 330.76 C7.94 330.76 8.06 331.06 8.18 331.37 C8.63 331.19 8.82 331.11 9.26
							 330.93 C9.15 330.66 8.8 329.77 8.8 329.77 L9.47 329.29 C9.66 329.13 9.88 328.91 10.1 328.64 L10.49 328.16
							 L11.09 328.37 C11.09 328.37 11.37 328.49 11.64 328.6 C11.83 328.16 11.9 327.97 12.09 327.53 ZM11.89
							 326.5 C11.89 326.5 11.88 326.52 11.88 326.55 C12 326.59 13.17 327.09 13.17 327.09 L12.08 329.68 C12.08
							 329.68 10.88 329.17 10.76 329.13 C10.75 329.14 10.74 329.16 10.74 329.16 C10.48 329.48 10.22 329.74
							 9.95 329.95 C9.95 329.95 9.86 330.02 9.8 330.06 C9.85 330.18 10.33 331.39 10.33 331.39 L7.73 332.44
							 C7.73 332.44 7.22 331.17 7.18 331.06 C7.15 331.06 7.13 331.07 7.13 331.07 C6.71 331.1 6.31 331.09 5.93
							 331.04 C5.93 331.04 5.91 331.04 5.89 331.03 C5.84 331.15 5.29 332.4 5.29 332.4 L2.71 331.29 C2.71 331.29
							 3.27 329.99 3.32 329.88 C3.31 329.87 3.29 329.85 3.29 329.85 C3 329.6 2.76 329.36 2.55 329.11 C2.55
							 329.11 2.49 329.03 2.45 328.97 C2.33 329.02 1.02 329.53 1.02 329.53 L0 326.91 C0 326.91 1.41 326.36
							 1.41 326.36 C1.41 326.36 1.43 326.35 1.45 326.34 C1.44 326.27 1.43 326.18 1.43 326.18 L1.41 325.83 C1.41
							 325.83 1.43 325.39 1.44 325.28 C1.33 325.24 0.01 324.71 0.01 324.71 L1.06 322.1 C1.06 322.1 2.36 322.62
							 2.48 322.67 C2.49 322.65 2.51 322.63 2.51 322.63 C2.76 322.3 3.03 322.02 3.32 321.78 C3.32 321.78 3.34
							 321.77 3.35 321.75 C3.31 321.64 2.77 320.36 2.77 320.36 L5.36 319.27 C5.36 319.27 5.88 320.51 5.93 320.62
							 C5.95 320.62 5.97 320.62 5.97 320.62 C6.39 320.56 6.8 320.55 7.19 320.59 C7.19 320.59 7.22 320.59 7.24
							 320.6 C7.28 320.48 7.79 319.26 7.79 319.26 L10.39 320.32 C10.39 320.32 9.89 321.53 9.85 321.64 C9.86
							 321.66 9.88 321.67 9.88 321.67 C10.25 321.96 10.54 322.24 10.78 322.54 C10.78 322.54 10.8 322.56 10.82
							 322.59 C10.93 322.54 12.11 322.05 12.11 322.05 L13.18 324.65 C13.18 324.65 12.01 325.14 11.89 325.18
							 C11.9 325.21 11.9 325.23 11.9 325.23 C11.92 325.46 11.94 325.65 11.94 325.82 C11.94 326.03 11.92 326.24
							 11.89 326.5 ZM7.78 327.21 C8.54 326.6 8.67 325.49 8.06 324.73 C7.45 323.96 6.33 323.84 5.57 324.45 C4.81
							 325.06 4.68 326.17 5.29 326.94 C5.9 327.7 7.02 327.83 7.78 327.21 ZM6.96 323.25 C7.65 323.33 8.27 323.67
							 8.7 324.21 C9.59 325.33 9.41 326.96 8.29 327.86 C7.75 328.29 7.08 328.49 6.39 328.41 C5.7 328.33 5.08
							 327.99 4.65 327.45 C4.27 326.97 4.08 326.4 4.08 325.83 C4.08 325.07 4.41 324.32 5.05 323.8 C5.59 323.37
							 6.27 323.18 6.96 323.25 Z" class="st3"/>
			</g>
		</g>
		<g id="group52-88" transform="translate(18.375,-18.375)" v:mID="52" v:groupContext="group">
			<title>Sheet.52</title>
			<g id="shape32-89" v:mID="32" v:groupContext="shape">
				<title>Sheet.32</title>
				<desc>Termination</desc>
				<v:textBlock v:margins="rect(4,4,4,4)" v:tabSpace="42.5197"/>
				<v:textRect cx="45.7795" cy="313.587" width="91.56" height="37.7008"/>
				<rect x="0" y="294.737" width="91.5591" height="37.7008" rx="5.66929" ry="5.66929" class="st4"/>
				<text x="15.88" y="317.19" class="st5" v:langID="1033"><v:paragraph v:horizAlign="1"/><v:tabList/>Termination</text>			</g>
			<g id="shape27-92" v:mID="27" v:groupContext="shape" transform="translate(77.6693,-23.1863)">
				<title>Stop</title>
				<v:userDefs>
					<v:ud v:nameU="msvShapeCategories" v:prompt="" v:val="VT4(Icon)"/>
					<v:ud v:nameU="visVersion" v:prompt="" v:val="VT0(15):26"/>
				</v:userDefs>
				<rect x="0" y="321.099" width="11.3386" height="11.3386" class="st3"/>
			</g>
		</g>
	</g>
</svg>
