<?xml version="1.0" encoding="UTF-8" standalone="no"?>
<!DOCTYPE svg PUBLIC "-//W3C//DTD SVG 1.1//EN" "http://www.w3.org/Graphics/SVG/1.1/DTD/svg11.dtd">
<!-- Generated by Microsoft Visio, SVG Export EA.svg Page-1 -->
<svg xmlns="http://www.w3.org/2000/svg" xmlns:xlink="http://www.w3.org/1999/xlink" xmlns:ev="http://www.w3.org/2001/xml-events"
		xmlns:v="http://schemas.microsoft.com/visio/2003/SVGExtensions/" width="5.54979in" height="4.61719in"
		viewBox="0 0 399.585 332.437" xml:space="preserve" color-interpolation-filters="sRGB" class="st11">
	<v:documentProperties v:langID="1033" v:metric="true" v:viewMarkup="false">
		<v:userDefs>
			<v:ud v:nameU="msvNoAutoConnect" v:val="VT0(1):26"/>
		</v:userDefs>
	</v:documentProperties>

	<style type="text/css">
	<![CDATA[
		.st1 {marker-end:url(#mrkr4-6);stroke:#4672c4;stroke-linecap:round;stroke-linejoin:round;stroke-width:1.5}
		.st2 {fill:#4672c4;fill-opacity:1;stroke:#4672c4;stroke-opacity:1;stroke-width:0.37313432835821}
		.st3 {fill:#595959;stroke:none;stroke-linecap:butt;stroke-width:0.75}
		.st4 {fill:#4672c4;stroke:#c7c8c8;stroke-width:0.25}
		.st5 {fill:#feffff;font-family:Open Sans;font-size:0.833336em}
		.st6 {fill:none;stroke:#ffffff;stroke-linecap:butt;stroke-width:0.75}
		.st7 {fill:#ffffff;stroke:none;stroke-linecap:butt;stroke-width:0.75}
		.st8 {fill:none;stroke:#ffffff;stroke-linecap:butt;stroke-width:0.25}
		.st9 {fill:#ffffff;stroke:#ffffff;stroke-linecap:butt;stroke-width:0.75}
		.st10 {fill:#ffffff;stroke:none;stroke-linecap:butt;stroke-width:1.25}
		.st11 {fill:none;fill-rule:evenodd;font-size:12px;overflow:visible;stroke-linecap:square;stroke-miterlimit:3}
	]]>
	</style>

	<defs id="Markers">
		<g id="lend4">
			<path d="M 2 1 L 0 0 L 2 -1 L 2 1 " style="stroke:none"/>
		</g>
		<marker id="mrkr4-6" class="st2" v:arrowType="4" v:arrowSize="2" v:setback="5.36" refX="-5.36" orient="auto"
				markerUnits="strokeWidth" overflow="visible">
			<use xlink:href="#lend4" transform="scale(-2.68,-2.68) "/>
		</marker>
	</defs>
	<g v:mID="0" v:index="1" v:groupContext="foregroundPage">
		<title>Page-1</title>
		<v:pageProperties v:drawingScale="0.0393701" v:pageScale="0.0393701" v:drawingUnits="24" v:shadowOffsetX="8.50394"
				v:shadowOffsetY="-8.50394"/>
		<v:layer v:name="Connector" v:index="0"/>
		<g id="shape7-1" v:mID="7" v:groupContext="shape" v:layerMember="0" transform="translate(57.0679,-193.782)">
			<title>Dynamic connector.7</title>
			<path d="M7.09 332.44 L7.09 379.73" class="st1"/>
		</g>
		<g id="shape10-7" v:mID="10" v:groupContext="shape" v:layerMember="0" transform="translate(109.934,-111.01)">
			<title>Dynamic connector.10</title>
			<path d="M0 325.35 L36.04 325.35" class="st1"/>
		</g>
		<g id="shape13-12" v:mID="13" v:groupContext="shape" v:layerMember="0" transform="translate(245.572,-109.509)">
			<title>Dynamic connector.13</title>
			<path d="M0 325.35 L36.04 325.35" class="st1"/>
		</g>
		<g id="shape15-17" v:mID="15" v:groupContext="shape" v:layerMember="0" transform="translate(328.344,-135.446)">
			<title>Dynamic connector.15</title>
			<path d="M7.09 332.44 L7.09 282.14" class="st1"/>
		</g>
		<g id="shape17-22" v:mID="17" v:groupContext="shape" v:layerMember="0" transform="translate(289.651,-205.546)">
			<title>Dynamic connector.17</title>
			<path d="M0 325.35 L-36.04 325.35" class="st1"/>
		</g>
		<g id="shape18-27" v:mID="18" v:groupContext="shape" v:layerMember="0" transform="translate(154.013,-205.546)">
			<title>Dynamic connector.18</title>
			<path d="M0 325.35 L-36.04 325.35" class="st1"/>
		</g>
		<g id="shape33-32" v:mID="33" v:groupContext="shape" v:layerMember="0" transform="translate(57.0679,-100.748)">
			<title>Dynamic connector.33</title>
			<path d="M7.09 332.44 L7.09 369.07" class="st1"/>
		</g>
		<g id="shape31-37" v:mID="31" v:groupContext="shape" transform="translate(215.806,484.245) rotate(180)">
			<title>Rotate left</title>
			<v:userDefs>
				<v:ud v:nameU="msvShapeCategories" v:prompt="" v:val="VT4(Icon)"/>
				<v:ud v:nameU="visVersion" v:prompt="" v:val="VT0(15):26"/>
			</v:userDefs>
			<path d="M30.82 311.44 A15.37 15.1279 -180 0 0 27.53 306.63 A15.4027 15.1601 -180 0 0 22.65 303.4 A15.3123 15.0711 -180
						 0 0 16.67 302.21 A15.3233 15.082 -180 0 0 10.69 303.4 A15.1423 14.9039 -180 0 0 7.48 305.24 L6.54 304.06
						 L3.61 300.41 L3.04 300.53 L0 313.39 L0.52 314.05 L13.93 314.13 L14.19 313.61 L11.25 309.94 L10.43 308.91
						 A10.3758 10.2124 0 0 1 12.54 307.68 A10.5719 10.4054 0 0 1 16.67 306.86 A10.5762 10.4097 0 0 1 20.81 307.68
						 A10.6612 10.4933 0 0 1 24.19 309.93 A10.6711 10.503 0 0 1 26.46 313.25 A10.5515 10.3854 0 0 1 27.3 317.32
						 A10.5559 10.3896 0 0 1 26.46 321.39 A10.6384 10.4709 0 0 1 24.19 324.72 A10.6711 10.503 0 0 1 20.81 326.96
						 A10.5559 10.3896 0 0 1 16.67 327.79 A10.5515 10.3854 0 0 1 12.54 326.96 A10.6516 10.4838 0 0 1 9.16 324.72
						 L5.81 328.01 A15.37 15.1279 -180 0 0 10.69 331.25 A15.3021 15.0611 -180 0 0 16.67 332.44 A15.3123 15.0711
						 -180 0 0 22.65 331.25 A15.3831 15.1409 -180 0 0 27.53 328.01 A15.3831 15.1409 -180 0 0 30.82 323.21 A15.3123
						 15.0711 -180 0 0 32.03 317.32 A15.3064 15.0654 -180 0 0 30.82 311.44 Z" class="st3"/>
		</g>
		<g id="shape1-39" v:mID="1" v:groupContext="shape" transform="translate(154.013,-273.152)">
			<title>Sheet.1</title>
			<desc>Initial Population</desc>
			<v:textBlock v:margins="rect(4,4,4,4)" v:tabSpace="42.5197"/>
			<v:textRect cx="45.7795" cy="312.17" width="91.56" height="40.5354"/>
			<rect x="0" y="291.902" width="91.5591" height="40.5354" rx="5.66929" ry="5.66929" class="st4"/>
			<text x="6.35" y="315.17" class="st5" v:langID="1033"><v:paragraph v:horizAlign="1"/><v:tabList/>Initial Population</text>		</g>
		<g id="shape25-42" v:mID="25" v:groupContext="shape" transform="translate(230.598,-299.055)">
			<title>New</title>
			<v:userDefs>
				<v:ud v:nameU="msvShapeCategories" v:prompt="" v:val="VT4(Icon)"/>
				<v:ud v:nameU="visVersion" v:prompt="" v:val="VT0(15):26"/>
			</v:userDefs>
			<path d="M14.17 325.35 L10.54 323.92 L12.1 320.34 L8.52 321.89 L7.09 318.26 L5.65 321.89 L2.08 320.34 L3.63 323.92 L0
						 325.35 L3.63 326.78 L2.08 330.36 L5.65 328.81 L7.09 332.44 L8.52 328.81 L12.1 330.36 L10.54 326.78 L14.17
						 325.35 ZM8.03 327.63 C8.03 327.63 7.38 329.27 7.09 330.02 C6.79 329.27 6.14 327.63 6.14 327.63 C6.14 327.63
						 4.53 328.33 3.78 328.65 C4.11 327.91 4.81 326.29 4.81 326.29 C4.81 326.29 3.17 325.65 2.41 325.35 C3.17
						 325.05 4.81 324.41 4.81 324.41 C4.81 324.41 4.11 322.79 3.78 322.05 C4.52 322.37 6.14 323.07 6.14 323.07
						 C6.14 323.07 6.79 321.43 7.09 320.68 C7.38 321.43 8.03 323.07 8.03 323.07 C8.03 323.07 9.65 322.37 10.39
						 322.05 C10.07 322.79 9.37 324.41 9.37 324.41 C9.37 324.41 11.01 325.05 11.76 325.35 C11.01 325.65 9.36 326.29
						 9.36 326.29 C9.36 326.29 10.07 327.91 10.39 328.65 C9.65 328.33 8.03 327.63 8.03 327.63 Z" class="st6"/>
		</g>
		<g id="shape14-44" v:mID="14" v:groupContext="shape" transform="translate(289.651,-193.782)">
			<title>Sheet.14</title>
			<desc>Mutation</desc>
			<v:textBlock v:margins="rect(4,4,4,4)" v:tabSpace="42.5197"/>
			<v:textRect cx="45.7795" cy="313.587" width="91.56" height="37.7008"/>
			<rect x="0" y="294.737" width="91.5591" height="37.7008" rx="5.66929" ry="5.66929" class="st4"/>
			<text x="24.53" y="316.59" class="st5" v:langID="1033"><v:paragraph v:horizAlign="1"/><v:tabList/>Mutation</text>		</g>
		<g id="shape30-47" v:mID="30" v:groupContext="shape" transform="translate(365.619,-215.892)">
			<title>Crop</title>
			<v:userDefs>
				<v:ud v:nameU="msvShapeCategories" v:prompt="" v:val="VT4(Icon)"/>
				<v:ud v:nameU="visVersion" v:prompt="" v:val="VT0(15):26"/>
			</v:userDefs>
			<path d="M14.17 327.57 L11.07 327.57 L11.07 321.36 L4.87 321.36 L4.87 318.26 L3.1 318.26 L3.1 321.36 L0 321.36 L0 323.14
						 L3.1 323.14 L3.1 329.34 L9.3 329.34 L9.3 332.44 L11.07 332.44 L11.07 329.34 L14.17 329.34 L14.17 327.57
						 ZM4.87 327.57 L4.87 323.14 L9.3 323.14 L9.3 327.57 L4.87 327.57 Z" class="st7"/>
		</g>
		<g id="group41-49" transform="translate(154.013,-193.782)" v:mID="41" v:groupContext="group">
			<title>Sheet.41</title>
		</g>
		<g id="group42-50" transform="translate(18.375,-193.782)" v:mID="42" v:groupContext="group">
			<title>Sheet.42</title>
			<g id="shape2-51" v:mID="2" v:groupContext="shape">
				<title>Sheet.2</title>
				<desc>Selection</desc>
				<v:textBlock v:margins="rect(4,4,4,4)" v:tabSpace="42.5197"/>
				<v:textRect cx="45.7795" cy="313.587" width="91.56" height="37.7008"/>
				<rect x="0" y="294.737" width="91.5591" height="37.7008" rx="5.66929" ry="5.66929" class="st4"/>
				<text x="24.66" y="316.59" class="st5" v:langID="1033"><v:paragraph v:horizAlign="1"/><v:tabList/>Selection</text>			</g>
			<g id="shape23-54" v:mID="23" v:groupContext="shape" transform="translate(72.9921,-19.559)">
				<title>Filter</title>
				<v:userDefs>
					<v:ud v:nameU="msvShapeCategories" v:prompt="" v:val="VT4(Icon)"/>
					<v:ud v:nameU="visVersion" v:prompt="" v:val="VT0(15):26"/>
				</v:userDefs>
				<path d="M15.15 319.31 L15.15 318.65 C14.75 318.15 12.13 317.29 8.08 317.29 C4.03 317.29 1.41 318.15 1.01 318.65
							 L1.01 319.31 C2.39 320 5.04 320.47 8.08 320.47 C11.12 320.47 13.77 320 15.15 319.31 ZM9.09 325.91 C9.09
							 325.91 12.69 322.05 14.36 320.26 C12.88 320.77 10.62 321.1 8.08 321.1 C7.31 321.1 6.57 321.07 5.87 321.02
							 A1.41732 1.41732 -180 0 0 4.73 323.4 C5.98 324.74 7.07 325.91 7.07 325.91 C7.07 325.91 7.07 330.98 7.07
							 331.27 C7.19 331.33 7.47 331.43 8.08 331.43 C8.68 331.43 8.97 331.33 9.09 331.27 C9.09 330.98 9.09 325.91
							 9.09 325.91 ZM16.16 318.53 C16.16 318.54 16.15 318.54 16.15 318.55 L16.15 318.55 a0.00403937 0.00403937
							 0 0 1 0.00403937 0.00403937 L16.16 318.56 A3.19222 3.19222 0 0 1 15.3 320.73 L11.62 324.67 A5.66929
							 5.66929 -180 0 0 10.1 328.54 L10.1 331.43 C10.1 331.93 9.59 332.35 8.47 332.42 A5.66929 5.66929 0 0
							 1 7.69 332.42 C7.52 332.41 7.36 332.39 7.21 332.37 A1.41732 1.41732 0 0 1 6.06 330.97 L6.06 328.54 A5.66929
							 5.66929 -180 0 0 4.53 324.67 L0.43 320.28 A1.60123 1.60123 0 0 1 0 319.18 L0 318.55 a0.00176722 0.00176722
							 0 0 1 0.00176722 -0.00176722 L0 318.55 C0 318.54 0 318.54 0 318.53 C0 317.29 3.62 316.28 8.08 316.28
							 C12.54 316.28 16.16 317.29 16.16 318.53 Z" class="st8"/>
			</g>
		</g>
		<g id="group44-56" transform="translate(154.013,-97.7451)" v:mID="44" v:groupContext="group">
			<title>Sheet.44</title>
		</g>
		<g id="shape12-57" v:mID="12" v:groupContext="shape" transform="translate(289.651,-97.7451)">
			<title>Sheet.12</title>
			<desc>Recombination</desc>
			<v:textBlock v:margins="rect(4,4,4,4)" v:tabSpace="42.5197"/>
			<v:textRect cx="45.7795" cy="313.587" width="91.56" height="37.7008"/>
			<rect x="0" y="294.737" width="91.5591" height="37.7008" rx="5.66929" ry="5.66929" class="st4"/>
			<text x="10.54" y="316.59" class="st5" v:langID="1033"><v:paragraph v:horizAlign="1"/><v:tabList/>Recombination</text>		</g>
		<g id="shape29-60" v:mID="29" v:groupContext="shape" transform="translate(367.695,-121.901)">
			<title>Shuffle</title>
			<v:userDefs>
				<v:ud v:nameU="msvShapeCategories" v:prompt="" v:val="VT4(Icon)"/>
				<v:ud v:nameU="visVersion" v:prompt="" v:val="VT0(15):26"/>
			</v:userDefs>
			<path d="M9.22 323.74 L10.68 323.74 L8.47 321.13 L6.26 323.74 L7.79 323.74 A19.4624 19.1559 -180 0 0 1.33 332.44 L2.85
						 332.44 A49.8577 49.0725 0 0 1 9.22 323.74 ZM3.12 327.17 A8.33027 8.19908 0 0 1 4.72 326.5 L4.73 326.5 A3.09364
						 3.04492 0 0 1 2.89 323.74 L4.42 323.74 L2.21 321.13 L0 323.74 L1.46 323.74 A3.95331 3.89105 -180 0 0 3.12
						 327.17 ZM7.56 327.68 A8.32111 8.19007 0 0 1 6.13 328.21 L5.96 328.26 A4.02977 3.96631 0 0 1 7.83 332.44
						 L9.35 332.44 A5.21024 5.12819 -180 0 0 7.56 327.68 Z" class="st9"/>
		</g>
		<g id="group47-62" transform="translate(154.013,-97.7451)" v:mID="47" v:groupContext="group">
			<title>Sheet.47</title>
			<g id="shape9-63" v:mID="9" v:groupContext="shape">
				<title>Sheet.9</title>
				<desc>Parent Selection</desc>
				<v:textBlock v:margins="rect(4,4,4,4)" v:tabSpace="42.5197"/>
				<v:textRect cx="45.7795" cy="313.587" width="91.56" height="37.7008"/>
				<rect x="0" y="294.737" width="91.5591" height="37.7008" rx="5.66929" ry="5.66929" class="st4"/>
				<text x="7.89" y="316.59" class="st5" v:langID="1033"><v:paragraph v:horizAlign="1"/><v:tabList/>Parent Selection</text>			</g>
			<g id="shape20-66" v:mID="20" v:groupContext="shape" transform="translate(75.5433,-24.6037)">
				<title>Users</title>
				<v:userDefs>
					<v:ud v:nameU="msvShapeCategories" v:prompt="" v:val="VT4(Icon)"/>
					<v:ud v:nameU="visVersion" v:prompt="" v:val="VT0(15):26"/>
				</v:userDefs>
				<path d="M10.09 324.79 A1.45604 1.47933 -180 0 0 11.42 323.34 A1.41732 1.41732 -180 0 0 11.42 323.29 A1.45604 1.47933
							 -180 0 0 10.08 321.84 A1.41732 1.41732 -180 0 0 9.86 321.84 A1.45658 1.47989 -180 0 0 8.51 323.28 A1.41732
							 1.41732 -180 0 0 8.51 323.35 A1.45686 1.48016 -180 0 0 9.85 324.79 A1.41732 1.41732 -180 0 0 10.09 324.79
							 ZM9.97 321.1 A2.1821 2.21701 0 0 1 12.15 323.32 A2.1821 2.21701 0 0 1 9.97 325.53 A2.18201 2.21692 0
							 0 1 7.79 323.32 A2.18201 2.21692 0 0 1 9.97 321.1 ZM4.05 331.65 A2.54288 2.58356 -180 0 0 6.29 330.57
							 A1.41732 1.41732 -180 0 0 6.55 329.63 A3.19898 3.25016 -180 0 0 5.16 327.24 L3.64 330.26 A5436.24 5523.22
							 0 0 1 2.13 327.24 A3.19933 3.25052 -180 0 0 0.74 329.63 A1.41732 1.41732 -180 0 0 1 330.57 A2.54259
							 2.58327 -180 0 0 3.24 331.65 A5.66929 5.66929 0 0 1 4.05 331.65 ZM5.08 326.33 A3.83396 3.89531 0 0 1
							 7.29 329.94 A1.41732 1.41732 0 0 1 7.24 330.29 A2.90555 2.95204 0 0 1 4.17 332.42 A5.66929 5.66929 -180
							 0 0 3.12 332.42 A2.90532 2.9518 0 0 1 0.05 330.29 A1.41732 1.41732 0 0 1 0 329.94 A3.83558 3.89695 0
							 0 1 2.21 326.33 A2.61171 2.6535 -180 0 0 2.29 326.38 A1.41732 1.41732 0 0 1 2.8 326.95 L3.12 327.59
							 a0.581601 0.581601 -180 0 0 1.04027 5.68434E-14 L4.68 326.55 A2.57179 2.61294 -180 0 0 5.08 326.33 ZM11.41
							 325.45 A3.83396 3.89531 0 0 1 13.61 329.06 A1.41732 1.41732 0 0 1 13.56 329.41 A2.90555 2.95204 0 0
							 1 10.29 331.52 A5.66929 5.66929 -180 0 0 9.56 331.45 A5.79186 5.88453 0 0 1 7.54 331 A2.20792 2.24324
							 -180 0 0 7.7 330.25 A5.01331 5.09353 -180 0 0 9.65 330.71 A5.66929 5.66929 0 0 1 10.23 330.75 A2.54288
							 2.58356 -180 0 0 12.62 329.69 A1.41732 1.41732 -180 0 0 12.87 328.75 A3.19822 3.24939 -180 0 0 11.48
							 326.36 A6843.74 6953.24 -180 0 0 9.97 329.38 A7616.91 7738.78 0 0 1 8.46 326.36 A2.89905 2.94544 -180
							 0 0 7.26 327.94 A4.11739 4.18327 -180 0 0 7.2 327.81 A1.41732 1.41732 0 0 1 7.45 326.2 A3.42214 3.47689
							 0 0 1 8.53 325.45 A2.61171 2.6535 -180 0 0 8.61 325.5 A1.41732 1.41732 0 0 1 9.13 326.07 L9.45 326.71
							 a0.581601 0.581601 -180 0 0 1.04027 0 L11.01 325.67 A2.57179 2.61294 -180 0 0 11.41 325.45 ZM3.76 325.67
							 A1.45576 1.47906 -180 0 0 5.1 324.22 A1.41732 1.41732 -180 0 0 5.1 324.17 A1.45604 1.47933 -180 0 0
							 3.76 322.72 A1.41732 1.41732 -180 0 0 3.53 322.72 A1.45658 1.47989 -180 0 0 2.19 324.16 A1.41732 1.41732
							 -180 0 0 2.19 324.23 A1.45686 1.48016 -180 0 0 3.53 325.67 A1.41732 1.41732 -180 0 0 3.76 325.67 ZM3.64
							 321.98 A2.1821 2.21701 0 0 1 5.83 324.19 A2.1821 2.21701 0 0 1 3.64 326.41 A2.18201 2.21692 0 0 1 1.46
							 324.19 A2.18201 2.21692 0 0 1 3.64 321.98 Z" class="st10"/>
			</g>
		</g>
		<g id="group49-68" transform="translate(18.375,-100.748)" v:mID="49" v:groupContext="group">
			<title>Sheet.49</title>
			<g id="shape6-69" v:mID="6" v:groupContext="shape">
				<title>Sheet.6</title>
				<desc>Stop Conditions</desc>
				<v:textBlock v:margins="rect(4,4,4,4)" v:tabSpace="42.5197"/>
				<v:textRect cx="45.7795" cy="313.587" width="91.56" height="37.7008"/>
				<rect x="0" y="294.737" width="91.5591" height="37.7008" rx="5.66929" ry="5.66929" class="st4"/>
				<text x="8.81" y="316.59" class="st5" v:langID="1033"><v:paragraph v:horizAlign="1"/><v:tabList/>Stop Conditions</text>			</g>
		</g>
		<g id="shape16-72" v:mID="16" v:groupContext="shape" transform="translate(154.013,-193.782)">
			<title>Sheet.16</title>
			<desc>Evaluation</desc>
			<v:textBlock v:margins="rect(4,4,4,4)" v:tabSpace="42.5197"/>
			<v:textRect cx="45.7795" cy="313.587" width="91.56" height="37.7008"/>
			<rect x="0" y="294.737" width="91.5591" height="37.7008" rx="5.66929" ry="5.66929" class="st4"/>
			<text x="21.48" y="316.59" class="st5" v:langID="1033"><v:paragraph v:horizAlign="1"/><v:tabList/>Evaluation</text>		</g>
		<g id="shape24-75" v:mID="24" v:groupContext="shape" transform="translate(230.598,-216.425)">
			<title>Configure</title>
			<v:userDefs>
				<v:ud v:nameU="msvShapeCategories" v:prompt="" v:val="VT4(Icon)"/>
				<v:ud v:nameU="visVersion" v:prompt="" v:val="VT0(15):26"/>
			</v:userDefs>
			<path d="M12.09 327.53 C11.83 327.42 11.02 327.08 11.02 327.07 L11.07 326.4 A5.66929 5.66929 -180 0 0 11.07 326.38 L11.08
						 326.22 A5.66929 5.66929 -180 0 0 11.09 325.43 L11.06 325.04 a0.499481 0.499481 0 0 1 0.248814 -0.465386
						 L11.58 324.42 C11.58 324.42 11.85 324.31 12.11 324.21 C11.92 323.76 11.85 323.57 11.66 323.13 C11.41 323.23
						 10.56 323.58 10.56 323.58 L10.14 323.06 C9.94 322.8 9.69 322.57 9.38 322.32 L9.14 322.13 a0.451499 0.451499
						 0 0 1 -0.152134 -0.498734 L9.08 321.33 C9.08 321.33 9.2 321.05 9.31 320.77 C8.87 320.59 8.68 320.51 8.24
						 320.33 C8.12 320.61 7.77 321.48 7.77 321.48 L7.11 321.41 C6.78 321.38 6.43 321.39 6.08 321.43 L5.78 321.47
						 a0.452535 0.452535 0 0 1 -0.463984 -0.243791 L5.17 320.94 C5.17 320.94 5.04 320.64 4.92 320.35 C4.47 320.53
						 4.29 320.61 3.85 320.8 C3.98 321.11 4.35 321.99 4.35 321.99 L3.84 322.41 C3.62 322.6 3.41 322.82 3.2 323.08
						 A5.66929 5.66929 -180 0 0 3.16 323.14 L2.97 323.38 a0.453354 0.453354 0 0 1 -0.498745 0.155533 L2.17 323.44
						 C2.17 323.44 1.84 323.3 1.51 323.17 C1.34 323.62 1.26 323.81 1.08 324.25 C1.41 324.39 2.3 324.74 2.3 324.74
						 C2.3 324.74 2.26 325.35 2.25 325.65 A2.83465 2.83465 -180 0 0 2.25 325.99 C2.25 326.01 2.25 326.02 2.25
						 326.03 A5.66929 5.66929 -180 0 0 2.26 326.21 C2.28 326.36 2.31 326.65 2.31 326.65 L2.05 326.88 A5.66929
						 5.66929 -180 0 0 1.96 326.96 C1.88 327.04 1.79 327.09 1.07 327.37 C1.24 327.82 1.31 328.01 1.49 328.46 C1.82
						 328.33 2.74 327.97 2.74 327.97 L3.16 328.54 A2.83465 2.83465 -180 0 0 3.37 328.8 C3.5 328.93 3.64 329.07
						 3.81 329.22 A5.66929 5.66929 -180 0 0 3.82 329.22 L4.05 329.42 a0.450534 0.450534 0 0 1 0.134401 0.493813
						 L4.08 330.2 C4.08 330.2 3.94 330.53 3.8 330.86 C4.24 331.05 4.42 331.13 4.87 331.32 C5 331.02 5.38 330.13
						 5.38 330.13 L6.05 330.22 C6.36 330.27 6.7 330.28 7.06 330.25 L7.36 330.22 a0.452888 0.452888 0 0 1 0.447552
						 0.254356 L7.94 330.76 C7.94 330.76 8.06 331.06 8.18 331.37 C8.63 331.19 8.82 331.11 9.26 330.93 C9.15 330.66
						 8.8 329.77 8.8 329.77 L9.37 329.36 A2.83465 2.83465 -180 0 0 9.67 329.11 C9.81 328.98 9.95 328.82 10.1 328.64
						 L10.29 328.41 a0.455258 0.455258 0 0 1 0.499186 -0.141984 L11.09 328.37 C11.09 328.37 11.37 328.49 11.64
						 328.6 C11.83 328.16 11.9 327.97 12.09 327.53 ZM11.89 326.51 C11.88 326.52 11.88 326.53 11.88 326.55 C12
						 326.59 13.17 327.09 13.17 327.09 L12.08 329.68 C12.08 329.68 10.88 329.17 10.76 329.13 C10.75 329.14 10.74
						 329.16 10.74 329.16 C10.48 329.48 10.22 329.74 9.95 329.95 C9.95 329.95 9.86 330.02 9.8 330.06 C9.85 330.18
						 10.33 331.39 10.33 331.39 L7.73 332.44 C7.73 332.44 7.22 331.17 7.18 331.06 C7.16 331.06 7.15 331.06 7.14
						 331.06 A2.83465 2.83465 0 0 1 7.1 331.07 C6.69 331.1 6.3 331.09 5.93 331.04 C5.93 331.04 5.91 331.04 5.89
						 331.03 C5.84 331.15 5.29 332.4 5.29 332.4 L2.71 331.29 C2.71 331.29 3.27 329.99 3.32 329.88 C3.31 329.87
						 3.29 329.85 3.29 329.85 C3 329.6 2.76 329.36 2.55 329.11 C2.55 329.11 2.49 329.03 2.45 328.97 C2.33 329.02
						 1.02 329.53 1.02 329.53 L0 326.91 C0 326.91 1.41 326.36 1.41 326.36 C1.41 326.36 1.43 326.35 1.45 326.34
						 C1.45 326.32 1.44 326.29 1.44 326.26 A5.66929 5.66929 0 0 1 1.43 326.09 L1.41 325.83 C1.41 325.83 1.43 325.39
						 1.44 325.28 C1.33 325.24 0.01 324.71 0.01 324.71 L1.06 322.1 C1.06 322.1 2.36 322.62 2.48 322.67 C2.48 322.67
						 2.48 322.67 2.48 322.67 A5.66929 5.66929 0 0 1 2.87 322.21 C3.01 322.05 3.16 321.91 3.32 321.78 C3.32 321.78
						 3.34 321.77 3.35 321.75 C3.31 321.64 2.77 320.36 2.77 320.36 L5.36 319.27 C5.36 319.27 5.88 320.51 5.93
						 320.62 C5.95 320.62 5.97 320.62 5.97 320.62 C6.39 320.56 6.8 320.55 7.19 320.59 C7.19 320.59 7.22 320.59
						 7.24 320.6 C7.28 320.48 7.79 319.26 7.79 319.26 L10.39 320.32 C10.39 320.32 9.89 321.53 9.85 321.64 C9.85
						 321.65 9.86 321.65 9.86 321.66 A5.66929 5.66929 0 0 1 9.96 321.73 C10.29 321.99 10.55 322.26 10.78 322.53
						 A5.66929 5.66929 -180 0 0 10.79 322.55 C10.8 322.56 10.81 322.57 10.82 322.59 C10.93 322.54 12.11 322.05
						 12.11 322.05 L13.18 324.65 C13.18 324.65 12.01 325.14 11.89 325.18 C11.9 325.21 11.9 325.23 11.9 325.23
						 C11.92 325.46 11.94 325.65 11.94 325.82 C11.94 326.02 11.92 326.23 11.89 326.49 A5.66929 5.66929 -180 0
						 0 11.89 326.51 ZM7.78 327.21 C8.54 326.6 8.67 325.49 8.06 324.73 C7.45 323.96 6.33 323.84 5.57 324.45 C4.81
						 325.06 4.68 326.17 5.29 326.94 C5.9 327.7 7.02 327.83 7.78 327.21 ZM6.96 323.25 C7.65 323.33 8.27 323.67
						 8.7 324.21 C9.59 325.33 9.41 326.96 8.29 327.86 C7.75 328.29 7.08 328.49 6.39 328.41 C5.7 328.33 5.08 327.99
						 4.65 327.45 C4.27 326.97 4.08 326.4 4.08 325.83 C4.08 325.07 4.41 324.32 5.05 323.8 C5.59 323.37 6.27 323.18
						 6.96 323.25 Z" class="st7"/>
		</g>
		<g id="shape32-77" v:mID="32" v:groupContext="shape" transform="translate(18.375,-18.375)">
			<title>Sheet.32</title>
			<desc>Termination</desc>
			<v:textBlock v:margins="rect(4,4,4,4)" v:tabSpace="42.5197"/>
			<v:textRect cx="45.7795" cy="313.587" width="91.56" height="37.7008"/>
			<rect x="0" y="294.737" width="91.5591" height="37.7008" rx="5.66929" ry="5.66929" class="st4"/>
			<text x="17.28" y="316.59" class="st5" v:langID="1033"><v:paragraph v:horizAlign="1"/><v:tabList/>Termination</text>		</g>
		<g id="shape27-80" v:mID="27" v:groupContext="shape" transform="translate(96.0443,-42.5197)">
			<title>Stop</title>
			<v:userDefs>
				<v:ud v:nameU="msvShapeCategories" v:prompt="" v:val="VT4(Icon)"/>
				<v:ud v:nameU="visVersion" v:prompt="" v:val="VT0(15):26"/>
			</v:userDefs>
			<rect x="0" y="321.099" width="11.3386" height="11.3386" class="st7"/>
		</g>
		<g id="shape61-82" v:mID="61" v:groupContext="shape" v:layerMember="0" transform="translate(192.706,-273.152)">
			<title>Dynamic connector</title>
			<path d="M7.09 332.44 L7.09 366.07" class="st1"/>
		</g>
		<g id="shape63-87" v:mID="63" v:groupContext="shape" transform="translate(98.2478,-125.291)">
			<title>Next</title>
			<v:userDefs>
				<v:ud v:nameU="msvShapeCategories" v:prompt="" v:val="VT4(Icon)"/>
				<v:ud v:nameU="visVersion" v:prompt="" v:val="VT0(15):26"/>
			</v:userDefs>
			<path d="M8.9 332.44 L6.28 332.44 L6.28 321.1 L8.9 321.1 L8.9 332.44 ZM0.52 321.1 L0 321.1 L0 332.44 L0.52 332.44 L6.28
						 326.77 L0.52 321.1 Z" class="st7"/>
		</g>
	</g>
</svg>
