<?xml version="1.0" encoding="UTF-8" standalone="no"?>
<!DOCTYPE svg PUBLIC "-//W3C//DTD SVG 1.1//EN" "http://www.w3.org/Graphics/SVG/1.1/DTD/svg11.dtd">
<!-- Generated by Microsoft Visio, SVG Export HH.svg Page-1 -->
<svg xmlns="http://www.w3.org/2000/svg" xmlns:xlink="http://www.w3.org/1999/xlink" xmlns:ev="http://www.w3.org/2001/xml-events"
		xmlns:v="http://schemas.microsoft.com/visio/2003/SVGExtensions/" width="5.87065in" height="3.68192in"
		viewBox="0 0 422.687 265.098" xml:space="preserve" color-interpolation-filters="sRGB" class="st18">
	<v:documentProperties v:langID="1033" v:metric="true" v:viewMarkup="false">
		<v:userDefs>
			<v:ud v:nameU="msvSubprocessMaster" v:prompt="" v:val="VT4(Rectangle)"/>
			<v:ud v:nameU="msvNoAutoConnect" v:val="VT0(1):26"/>
		</v:userDefs>
	</v:documentProperties>

	<style type="text/css">
	<![CDATA[
		.st1 {fill:#4672c4;stroke:#c7c8c8;stroke-width:0.25}
		.st2 {fill:#feffff;font-family:Open Sans;font-size:1.00001em}
		.st3 {fill:#ffffff;stroke:none;stroke-linecap:butt;stroke-width:6.12}
		.st4 {marker-end:url(#mrkr4-27);stroke:#4672c4;stroke-linecap:round;stroke-linejoin:round;stroke-width:1.5}
		.st5 {fill:#4672c4;fill-opacity:1;stroke:#4672c4;stroke-opacity:1;stroke-width:0.37313432835821}
		.st6 {fill:#ffffff;stroke:none;stroke-linecap:butt;stroke-width:7.2}
		.st7 {fill:#3c63ac;font-family:Open Sans;font-size:1.00001em}
		.st8 {fill:#ffffff;stroke:none;stroke-linecap:butt}
		.st9 {stroke:#ffffff;stroke-dasharray:7,5;stroke-linecap:round;stroke-linejoin:round;stroke-width:1}
		.st10 {fill:#ffffff;stroke:#7f7f7f;stroke-width:1}
		.st11 {fill:#000000;stroke:none;stroke-linecap:butt;stroke-width:6.8}
		.st12 {fill:#000000;stroke:none;stroke-linecap:butt;stroke-width:6.12}
		.st13 {fill:#000000;stroke:none;stroke-linecap:butt;stroke-width:25.5}
		.st14 {fill:#000000;stroke:none;stroke-linecap:butt;stroke-width:1.19531}
		.st15 {stroke:#4672c4;stroke-dasharray:15,9;stroke-linecap:round;stroke-linejoin:round;stroke-width:1}
		.st16 {fill:#ffffff;stroke:none;stroke-width:0.25}
		.st17 {fill:#4672c4;font-family:Open Sans;font-size:1.00001em}
		.st18 {fill:none;fill-rule:evenodd;font-size:12px;overflow:visible;stroke-linecap:square;stroke-miterlimit:3}
	]]>
	</style>

	<defs id="Markers">
		<g id="lend4">
			<path d="M 2 1 L 0 0 L 2 -1 L 2 1 " style="stroke:none"/>
		</g>
		<marker id="mrkr4-27" class="st5" v:arrowType="4" v:arrowSize="2" v:setback="5.36" refX="-5.36" orient="auto"
				markerUnits="strokeWidth" overflow="visible">
			<use xlink:href="#lend4" transform="scale(-2.68,-2.68) "/>
		</marker>
	</defs>
	<g v:mID="0" v:index="1" v:groupContext="foregroundPage">
		<v:userDefs>
			<v:ud v:nameU="msvThemeOrder" v:val="VT0(0):26"/>
		</v:userDefs>
		<title>Page-1</title>
		<v:pageProperties v:drawingScale="0.0393701" v:pageScale="0.0393701" v:drawingUnits="24" v:shadowOffsetX="8.50394"
				v:shadowOffsetY="-8.50394"/>
		<v:layer v:name="Annotations" v:index="0"/>
		<v:layer v:name="Connector" v:index="1"/>
		<g id="shape70-1" v:mID="70" v:groupContext="shape" transform="translate(253.776,472.92) rotate(180)">
			<title>Round Same Side Corner Rectangle</title>
			<desc>Optimization Problem</desc>
			<v:userDefs>
				<v:ud v:nameU="CTypeTopLeftSnip" v:prompt="" v:val="VT0(0):5"/>
				<v:ud v:nameU="CTypeTopRightSnip" v:prompt="" v:val="VT0(0):5"/>
				<v:ud v:nameU="CTypeBotLeftSnip" v:prompt="" v:val="VT0(1):5"/>
				<v:ud v:nameU="CTypeBotRightSnip" v:prompt="" v:val="VT0(0):5"/>
				<v:ud v:nameU="CornerLockHoriz" v:prompt="" v:val="VT0(1):5"/>
				<v:ud v:nameU="CornerLockVert" v:prompt="" v:val="VT0(0):5"/>
				<v:ud v:nameU="CornerLockDiag" v:prompt="" v:val="VT0(0):5"/>
				<v:ud v:nameU="TopLeftOffset" v:prompt="" v:val="VT0(0.15748031496063):24"/>
				<v:ud v:nameU="TopRightOffset" v:prompt="" v:val="VT0(0.15748031496063):24"/>
				<v:ud v:nameU="BotLeftOffset" v:prompt="" v:val="VT0(0):24"/>
				<v:ud v:nameU="BotRightOffset" v:prompt="" v:val="VT0(0):24"/>
				<v:ud v:nameU="visVersion" v:prompt="" v:val="VT0(15):26"/>
				<v:ud v:nameU="TopLeftOffset" v:prompt="" v:val="VT0(0.26082689668799):24"/>
				<v:ud v:nameU="TopRightOffset" v:prompt="" v:val="VT0(0.26082689668799):24"/>
			</v:userDefs>
			<v:textBlock v:margins="rect(4,4,4,4)" v:tabSpace="42.5197"/>
			<v:textRect cx="117.638" cy="246.319" width="235.28" height="37.5591" transform="rotate(180)"/>
			<path d="M0 265.1 L235.28 265.1 L235.28 246.32 A18.7792 18.7792 -180 0 0 216.5 227.54 L18.78 227.54 A18.7792 18.7792
						 -180 0 0 0 246.32 L0 265.1 Z" class="st1"/>
			<text x="-179.19" y="-242.72" transform="rotate(180)" class="st2" v:langID="1033"><v:paragraph v:horizAlign="1"/><v:tabList/>Optimization Problem</text>		</g>
		<g id="shape5-4" v:mID="5" v:groupContext="shape" transform="translate(18.5,-93.4183)">
			<title>Rectangle</title>
			<desc>Low-Level-Heuristics</desc>
			<v:userDefs>
				<v:ud v:nameU="visVersion" v:val="VT0(15):26"/>
			</v:userDefs>
			<v:textBlock v:margins="rect(4,4,4,4)" v:tabSpace="42.5197" v:verticalAlign="0"/>
			<v:textRect cx="117.638" cy="229.311" width="235.28" height="71.5748"/>
			<rect x="0" y="193.523" width="235.276" height="71.5748" class="st1"/>
			<text x="60.34" y="208.32" class="st2" v:langID="1033"><v:paragraph v:horizAlign="1"/><v:tabList/>Low-Level-Heuristics</text>		</g>
		<g id="group69-7" transform="translate(18.5,-208.576)" v:mID="69" v:groupContext="group">
			<title>Sheet.69</title>
			<g id="shape2-8" v:mID="2" v:groupContext="shape">
				<title>Round Same Side Corner Rectangle</title>
				<desc>Hyper-Heuristic</desc>
				<v:userDefs>
					<v:ud v:nameU="CTypeTopLeftSnip" v:prompt="" v:val="VT0(0):5"/>
					<v:ud v:nameU="CTypeTopRightSnip" v:prompt="" v:val="VT0(0):5"/>
					<v:ud v:nameU="CTypeBotLeftSnip" v:prompt="" v:val="VT0(1):5"/>
					<v:ud v:nameU="CTypeBotRightSnip" v:prompt="" v:val="VT0(0):5"/>
					<v:ud v:nameU="CornerLockHoriz" v:prompt="" v:val="VT0(1):5"/>
					<v:ud v:nameU="CornerLockVert" v:prompt="" v:val="VT0(0):5"/>
					<v:ud v:nameU="CornerLockDiag" v:prompt="" v:val="VT0(0):5"/>
					<v:ud v:nameU="TopLeftOffset" v:prompt="" v:val="VT0(0.15748031496063):24"/>
					<v:ud v:nameU="TopRightOffset" v:prompt="" v:val="VT0(0.15748031496063):24"/>
					<v:ud v:nameU="BotLeftOffset" v:prompt="" v:val="VT0(0):24"/>
					<v:ud v:nameU="BotRightOffset" v:prompt="" v:val="VT0(0):24"/>
					<v:ud v:nameU="visVersion" v:prompt="" v:val="VT0(15):26"/>
					<v:ud v:nameU="TopLeftOffset" v:prompt="" v:val="VT0(0.260826896688):1"/>
					<v:ud v:nameU="TopRightOffset" v:prompt="" v:val="VT0(0.260826896688):1"/>
				</v:userDefs>
				<v:textBlock v:margins="rect(4,4,4,4)" v:tabSpace="42.5197"/>
				<v:textRect cx="117.638" cy="246.319" width="235.28" height="37.5591"/>
				<path d="M0 265.1 L235.28 265.1 L235.28 246.32 A18.7792 18.7792 -180 0 0 216.5 227.54 L18.78 227.54 A18.7792 18.7792
							 -180 0 0 0 246.32 L0 265.1 Z" class="st1"/>
				<text x="73.97" y="249.92" class="st2" v:langID="1033"><v:paragraph v:horizAlign="1"/><v:tabList/>Hyper-Heuristic</text>			</g>
			<g id="group6-11" transform="translate(199.843,-5.15678)" v:mID="6" v:groupContext="group">
				<title>Sheet.6</title>
				<g id="shape7-12" v:mID="7" v:groupContext="shape" transform="translate(12.1983,-13.2606)">
					<title>Sheet.7</title>
					<path d="M0.34 265.1 L2.51 265.1 C2.7 265.1 2.85 264.95 2.85 264.76 C2.85 264.57 2.7 264.42 2.51 264.42 L0.34
								 264.42 C0.15 264.42 0 264.57 0 264.76 C0 264.95 0.15 265.1 0.34 265.1 Z" class="st3"/>
				</g>
				<g id="shape8-14" v:mID="8" v:groupContext="shape" transform="translate(12.1983,-7.37461)">
					<title>Sheet.8</title>
					<path d="M0.34 265.1 L2.51 265.1 C2.7 265.1 2.85 264.95 2.85 264.76 C2.85 264.57 2.7 264.42 2.51 264.42 L0.34
								 264.42 C0.15 264.42 0 264.57 0 264.76 C0 264.95 0.15 265.1 0.34 265.1 Z" class="st3"/>
				</g>
				<g id="shape9-16" v:mID="9" v:groupContext="shape" transform="translate(12.1983,-19.1465)">
					<title>Sheet.9</title>
					<path d="M0.34 265.1 L2.51 265.1 C2.7 265.1 2.85 264.95 2.85 264.76 C2.85 264.57 2.7 264.42 2.51 264.42 L0.34
								 264.42 C0.15 264.42 0 264.57 0 264.76 C0 264.95 0.15 265.1 0.34 265.1 Z" class="st3"/>
				</g>
				<g id="shape10-18" v:mID="10" v:groupContext="shape">
					<title>Sheet.10</title>
					<path d="M2.24 253.74 C3.36 253.74 4.28 252.91 4.45 251.84 L10.72 251.84 L10.72 257 L5.81 257 C5.65 255.93 4.72
								 255.1 3.6 255.1 C2.37 255.1 1.36 256.1 1.36 257.34 C1.36 258.57 2.37 259.58 3.6 259.58 C4.72 259.58
								 5.65 258.75 5.81 257.68 L10.72 257.68 L10.72 260.67 C10.72 261.58 10.05 262.34 9.18 262.49 C9 261.43
								 8.08 260.62 6.97 260.62 C5.74 260.62 4.73 261.62 4.73 262.86 C4.73 264.09 5.74 265.1 6.97 265.1
								 C8.1 265.1 9.03 264.26 9.19 263.18 C10.43 263.02 11.4 261.96 11.4 260.67 L11.4 242.28 C11.4 240.99
								 10.43 239.93 9.19 239.77 C9.03 238.69 8.1 237.85 6.97 237.85 C5.74 237.85 4.73 238.86 4.73 240.09
								 C4.73 241.33 5.74 242.33 6.97 242.33 C8.08 242.33 9 241.52 9.18 240.46 C10.05 240.61 10.72 241.37
								 10.72 242.28 L10.72 245.27 L5.81 245.27 C5.65 244.2 4.72 243.37 3.6 243.37 C2.37 243.37 1.36 244.38
								 1.36 245.61 C1.36 246.85 2.37 247.85 3.6 247.85 C4.72 247.85 5.65 247.02 5.81 245.95 L10.72 245.95
								 L10.72 251.16 L4.45 251.16 C4.28 250.08 3.36 249.26 2.24 249.26 C1 249.26 0 250.26 0 251.5 C0 252.73
								 1 253.74 2.24 253.74 ZM3.6 258.9 C2.74 258.9 2.04 258.2 2.04 257.34 C2.04 256.48 2.74 255.78 3.6
								 255.78 C4.46 255.78 5.16 256.48 5.16 257.34 C5.16 258.2 4.46 258.9 3.6 258.9 ZM6.97 264.42 C6.11
								 264.42 5.41 263.72 5.41 262.86 C5.41 262 6.11 261.3 6.97 261.3 C7.83 261.3 8.53 262 8.53 262.86
								 C8.53 263.72 7.83 264.42 6.97 264.42 ZM6.97 241.65 C6.11 241.65 5.41 240.95 5.41 240.09 C5.41 239.23
								 6.11 238.53 6.97 238.53 C7.83 238.53 8.53 239.23 8.53 240.09 C8.53 240.95 7.83 241.65 6.97 241.65
								 ZM3.6 247.17 C2.74 247.17 2.04 246.47 2.04 245.61 C2.04 244.75 2.74 244.05 3.6 244.05 C4.46 244.05
								 5.16 244.75 5.16 245.61 C5.16 246.47 4.46 247.17 3.6 247.17 ZM2.24 249.94 C3.1 249.94 3.8 250.64
								 3.8 251.5 C3.8 252.36 3.1 253.05 2.24 253.05 C1.38 253.05 0.68 252.36 0.68 251.5 C0.68 250.64 1.38
								 249.94 2.24 249.94 Z" class="st3"/>
				</g>
				<g id="shape11-20" v:mID="11" v:groupContext="shape" transform="translate(15.8424,0)">
					<title>Sheet.11</title>
					<path d="M2.22 240.46 C2.4 241.52 3.32 242.33 4.43 242.33 C5.67 242.33 6.67 241.33 6.67 240.09 C6.67 238.86 5.67
								 237.85 4.43 237.85 C3.3 237.85 2.37 238.69 2.22 239.77 C0.97 239.93 0 240.99 0 242.28 L0 260.67
								 C0 261.96 0.97 263.02 2.22 263.18 C2.37 264.26 3.3 265.1 4.43 265.1 C5.67 265.1 6.67 264.09 6.67
								 262.86 C6.67 261.62 5.67 260.62 4.43 260.62 C3.32 260.62 2.4 261.43 2.22 262.49 C1.35 262.34 0.68
								 261.58 0.68 260.67 L0.68 257.68 L5.59 257.68 C5.76 258.75 6.68 259.58 7.8 259.58 C9.04 259.58 10.04
								 258.57 10.04 257.34 C10.04 256.1 9.04 255.1 7.8 255.1 C6.68 255.1 5.76 255.93 5.59 257 L0.68 257
								 L0.68 251.84 L6.95 251.84 C7.12 252.91 8.05 253.74 9.16 253.74 C10.4 253.74 11.4 252.73 11.4 251.5
								 C11.4 250.26 10.4 249.26 9.16 249.26 C8.05 249.26 7.12 250.08 6.95 251.16 L0.68 251.16 L0.68 245.95
								 L5.59 245.95 C5.76 247.02 6.68 247.85 7.8 247.85 C9.04 247.85 10.04 246.85 10.04 245.61 C10.04 244.38
								 9.04 243.37 7.8 243.37 C6.68 243.37 5.76 244.2 5.59 245.27 L0.68 245.27 L0.68 242.28 C0.68 241.37
								 1.35 240.61 2.22 240.46 ZM4.43 238.53 C5.29 238.53 5.99 239.23 5.99 240.09 C5.99 240.95 5.29 241.65
								 4.43 241.65 C3.57 241.65 2.87 240.95 2.87 240.09 C2.87 239.23 3.57 238.53 4.43 238.53 ZM4.43 261.3
								 C5.29 261.3 5.99 262 5.99 262.86 C5.99 263.72 5.29 264.42 4.43 264.42 C3.57 264.42 2.87 263.72 2.87
								 262.86 C2.87 262 3.57 261.3 4.43 261.3 ZM7.8 255.78 C8.66 255.78 9.36 256.48 9.36 257.34 C9.36 258.2
								 8.66 258.9 7.8 258.9 C6.94 258.9 6.24 258.2 6.24 257.34 C6.24 256.48 6.94 255.78 7.8 255.78 ZM9.16
								 249.94 C10.02 249.94 10.72 250.64 10.72 251.5 C10.72 252.36 10.02 253.05 9.16 253.05 C8.3 253.05
								 7.61 252.36 7.61 251.5 C7.61 250.64 8.3 249.94 9.16 249.94 ZM7.8 244.05 C8.66 244.05 9.36 244.75
								 9.36 245.61 C9.36 246.47 8.66 247.17 7.8 247.17 C6.94 247.17 6.24 246.47 6.24 245.61 C6.24 244.75
								 6.94 244.05 7.8 244.05 Z" class="st3"/>
				</g>
			</g>
		</g>
		<g id="shape76-22" v:mID="76" v:groupContext="shape" v:layerMember="1" transform="translate(189.996,-208.576)">
			<title>Dynamic connector</title>
			<desc>Use</desc>
			<v:textBlock v:margins="rect(4,4,4,4)" v:tabSpace="42.5197"/>
			<v:textRect cx="7.08661" cy="286.889" width="60" height="22.4037"/>
			<path d="M7.09 265.1 L7.09 300.64" class="st4"/>
			<rect v:rectContext="textBkgnd" x="-3.51016" y="279.69" width="21.1935" height="14.4001" class="st6"/>
			<text x="-3.51" y="290.49" class="st7" v:langID="1033"><v:paragraph v:horizAlign="1"/><v:tabList/>Use</text>		</g>
		<g id="shape84-30" v:mID="84" v:groupContext="shape" v:layerMember="1" transform="translate(65.5551,-164.993)">
			<title>Dynamic connector.84</title>
			<desc>Update</desc>
			<v:textBlock v:margins="rect(4,4,4,4)" v:tabSpace="42.5197"/>
			<v:textRect cx="-7.08661" cy="243.307" width="60" height="22.4037"/>
			<path d="M-6.8 265.1 L-7.27 229.55" class="st4"/>
			<rect v:rectContext="textBkgnd" x="-27.6299" y="236.107" width="41.0864" height="14.4001" class="st6"/>
			<text x="-27.63" y="246.91" class="st7" v:langID="1033"><v:paragraph v:horizAlign="1"/><v:tabList/>Update</text>		</g>
		<g id="shape86-37" v:mID="86" v:groupContext="shape" v:layerMember="1" transform="translate(129.051,-93.4183)">
			<title>Dynamic connector.86</title>
			<desc>Solve</desc>
			<v:textBlock v:margins="rect(4,4,4,4)" v:tabSpace="42.5197"/>
			<v:textRect cx="7.08661" cy="283.169" width="60" height="22.4037"/>
			<path d="M7.09 265.1 L7.09 293.2" class="st4"/>
			<rect v:rectContext="textBkgnd" x="-7.72012" y="275.969" width="29.6136" height="14.4001" class="st8"/>
			<text x="-7.72" y="286.77" class="st7" v:langID="1033"><v:paragraph v:horizAlign="1"/><v:tabList/>Solve</text>		</g>
		<g id="shape87-44" v:mID="87" v:groupContext="shape" v:layerMember="1" transform="translate(18.5,-122.119)">
			<title>Dynamic connector.87</title>
			<path d="M0 258.01 L235.28 258.01" class="st9"/>
		</g>
		<g id="group61-47" transform="translate(44.0118,-104.58)" v:mID="61" v:groupContext="group">
			<title>Sheet.61</title>
			<g id="group34-48" transform="translate(144.567,-2.27374E-13)" v:mID="34" v:groupContext="group">
				<title>Sheet.34</title>
				<g id="shape35-49" v:mID="35" v:groupContext="shape">
					<title>Circle</title>
					<v:userDefs>
						<v:ud v:nameU="visVersion" v:val="VT0(15):26"/>
					</v:userDefs>
					<path d="M0 245.26 A19.8425 19.8425 0 1 1 39.69 245.26 A19.8425 19.8425 0 0 1 0 245.26 Z" class="st10"/>
				</g>
				<g id="group36-51" transform="translate(6.94488,-8.09984)" v:mID="36" v:groupContext="group">
					<title>Sheet.36</title>
					<g id="group37-52" v:mID="37" v:groupContext="group">
						<title>Sheet.37</title>
						<g id="shape38-53" v:mID="38" v:groupContext="shape" transform="translate(-1.3789E-13,-14.47)">
							<title>Sheet.38</title>
							<path d="M2.55 265.1 C2.56 265.1 2.56 265.1 2.56 265.1 C2.61 265.09 2.65 265.05 2.64 265 C2.58 264.36
										 2.51 264.04 2.37 263.88 C2.31 263.8 2.25 263.75 2.18 263.7 C2.11 263.64 2.04 263.58 1.97
										 263.49 C1.87 263.34 1.96 263.23 2.2 262.98 C2.39 262.79 2.62 262.56 2.68 262.23 C2.71 262.08
										 2.76 261.97 2.82 261.9 C2.82 261.9 2.82 261.9 2.82 261.9 C3.01 262.64 3.56 262.9 3.94 262.78
										 C4.33 262.65 4.74 262.16 4.6 261.52 C4.59 261.47 4.57 261.41 4.55 261.36 C4.61 261.38 4.66
										 261.39 4.71 261.42 C4.82 261.49 5.06 261.74 5.29 261.99 C5.37 262.07 5.45 262.16 5.53 262.24
										 C5.65 262.37 5.79 262.5 5.89 262.61 L6.15 262.86 C6.19 262.89 6.25 262.89 6.28 262.86 C6.32
										 262.82 6.32 262.76 6.28 262.73 L6.02 262.48 C5.92 262.37 5.78 262.25 5.66 262.11 C5.58 262.03
										 5.5 261.95 5.42 261.86 C5.16 261.58 4.94 261.34 4.8 261.26 C4.69 261.2 4.57 261.16 4.44
										 261.14 C4.37 261.04 4.28 260.95 4.19 260.87 C4.33 260.81 4.45 260.73 4.56 260.66 C4.58 260.64
										 4.61 260.63 4.64 260.61 C4.65 260.61 4.65 260.61 4.66 260.61 C4.78 260.65 4.88 260.68 4.95
										 260.71 C5.05 260.75 5.07 260.81 5.11 260.95 C5.17 261.17 5.25 261.47 5.86 261.74 C5.87 261.74
										 5.89 261.74 5.9 261.74 C5.93 261.74 5.97 261.72 5.98 261.69 C6 261.64 5.98 261.59 5.94 261.57
										 C5.4 261.33 5.34 261.09 5.29 260.9 C5.25 260.76 5.21 260.61 5.02 260.54 C4.97 260.52 4.91
										 260.5 4.84 260.48 C4.93 260.43 5.01 260.38 5.07 260.34 L5.12 260.31 C5.51 260.11 5.6 260.04
										 5.58 259.94 C5.57 259.85 5.47 259.83 5.37 259.81 C5.34 259.8 5.31 259.8 5.27 259.79 C5.12
										 259.76 5.04 259.71 5.01 259.63 C4.97 259.53 5.05 259.34 5.24 259.1 C5.27 259.07 5.27 259.01
										 5.23 258.98 C5.19 258.94 5.13 258.95 5.1 258.99 C4.86 259.29 4.77 259.52 4.84 259.7 C4.91
										 259.9 5.15 259.95 5.23 259.97 C5.26 259.97 5.3 259.98 5.33 259.99 C5.27 260.02 5.18 260.08
										 5.03 260.15 L4.98 260.18 C4.88 260.24 4.75 260.32 4.61 260.41 C4.42 260.35 4.2 260.28 3.97
										 260.18 C4.04 260.03 4.14 260.08 4.16 259.77 C4.18 259.57 4.19 259.38 4.19 259.25 C4.21 259.13
										 4.22 259.05 4.22 259.04 C4.4 259.05 4.52 258.92 4.58 258.73 C4.63 258.6 4.65 258.45 4.65
										 258.3 C4.68 258.27 4.72 258.24 4.75 258.2 C5.01 257.99 5.3 257.74 5.59 257.66 C6.09 257.51
										 6.37 257.56 6.64 257.61 L6.74 257.63 C6.79 257.64 6.83 257.6 6.84 257.55 C6.85 257.5 6.82
										 257.45 6.77 257.45 L6.67 257.43 C6.4 257.38 6.08 257.33 5.54 257.49 C5.22 257.57 4.92 257.82
										 4.64 258.06 C4.57 257.71 4.33 257.5 4.04 257.62 C4.04 257.62 4.03 257.62 4.03 257.62 C4.03
										 257.59 4.04 257.55 4.04 257.52 L4.14 256.97 C4.18 256.77 4.31 256.7 4.51 256.59 L4.57 256.55
										 C4.8 256.42 5.08 256.26 5.37 255.83 C5.4 255.78 5.39 255.73 5.35 255.7 C5.31 255.67 5.25
										 255.68 5.22 255.72 C4.95 256.12 4.7 256.26 4.47 256.4 L4.42 256.43 C4.21 256.54 4.01 256.65
										 3.96 256.94 L3.86 257.49 C3.85 257.59 3.84 257.68 3.83 257.77 C3.75 257.84 3.69 257.93 3.63
										 258.04 C3.54 258.23 3.53 258.49 3.65 258.72 C3.46 258.87 3.27 259.1 3.13 259.35 C3.1 259.4
										 3.08 259.45 3.06 259.5 C2.92 259.28 2.84 259.03 2.82 258.73 C2.82 258.14 2.74 257.81 2.59
										 257.67 C2.51 257.6 2.42 257.57 2.32 257.57 C2.01 257.59 1.58 257.97 1.24 258.52 C1.22 258.57
										 1.23 258.62 1.27 258.65 C1.32 258.68 1.37 258.66 1.4 258.62 C1.73 258.07 2.12 257.77 2.33
										 257.76 C2.38 257.75 2.42 257.77 2.46 257.8 C2.58 257.91 2.63 258.21 2.64 258.74 C2.66 259.12
										 2.78 259.44 3 259.71 C2.96 259.86 2.97 260.01 3.04 260.16 C3.25 260.6 3.34 260.49 3.33 260.68
										 C3.31 260.69 3.3 260.71 3.29 260.72 C3.17 260.66 3.04 260.59 2.91 260.52 L2.85 260.48 C2.54
										 260.3 2.24 260.12 2.01 260.23 C1.7 260.37 1.52 260.79 1.34 261.23 C1.24 261.47 1.14 261.71
										 1.02 261.92 C0.69 262.51 0.3 262.61 0.09 262.61 C0.04 262.61 0 262.65 0 262.7 C0 262.75
										 0.04 262.79 0.09 262.79 C0.09 262.79 0.09 262.79 0.09 262.79 C0.34 262.79 0.8 262.68 1.18
										 262.01 C1.31 261.79 1.41 261.54 1.51 261.31 C1.68 260.89 1.84 260.5 2.08 260.4 C2.23 260.33
										 2.5 260.49 2.76 260.64 L2.82 260.68 C2.93 260.74 3.04 260.8 3.15 260.86 C2.96 261.05 2.8
										 261.32 2.8 261.67 C2.63 261.8 2.54 261.97 2.5 262.2 C2.45 262.47 2.25 262.67 2.07 262.85
										 C1.85 263.07 1.62 263.3 1.82 263.59 C1.91 263.71 1.99 263.78 2.07 263.84 C2.13 263.89 2.18
										 263.93 2.23 263.99 C2.34 264.13 2.41 264.43 2.46 265.02 C2.47 265.06 2.51 265.1 2.55 265.1
										 ZM4.41 260.54 C4.3 260.61 4.17 260.68 4.02 260.74 C3.97 260.71 3.92 260.68 3.87 260.64 C3.88
										 260.56 3.89 260.48 3.91 260.38 C3.91 260.37 3.91 260.36 3.91 260.35 C4.09 260.43 4.26 260.49
										 4.41 260.54 Z" class="st11"/>
						</g>
						<g id="shape39-55" v:mID="39" v:groupContext="shape" transform="translate(7.91491,-18.3158)">
							<title>Sheet.39</title>
							<path d="M1.39 261.98 L1.59 261.93 C1.74 261.9 1.93 261.85 2.02 261.85 C1.97 261.97 2.11 262.08 2.35
										 262.29 C2.4 262.33 2.46 262.38 2.51 262.42 C2.5 262.44 2.48 262.45 2.47 262.46 C2.24 262.31
										 1.84 262.33 1.56 262.54 C1.16 262.83 1.42 263.4 1.67 263.69 C1.93 263.98 2.26 264.05 2.55
										 263.85 C2.78 263.68 2.63 263.21 2.59 262.91 C2.61 262.9 2.62 262.9 2.63 262.89 C2.68 262.98
										 2.74 263.08 2.8 263.17 C2.88 263.28 2.95 263.39 2.98 263.48 C3.01 263.57 2.94 263.71 2.85
										 263.86 C2.82 263.92 2.78 263.99 2.75 264.06 C2.69 264.2 2.64 264.35 2.63 264.52 C2.63 264.7
										 2.68 264.87 2.77 265.05 C2.79 265.08 2.82 265.1 2.86 265.1 C2.87 265.1 2.88 265.09 2.9 265.09
										 C2.94 265.06 2.96 265.01 2.94 264.96 C2.86 264.81 2.82 264.67 2.82 264.52 C2.82 264.38 2.87
										 264.25 2.91 264.14 C2.95 264.07 2.98 264.01 3.01 263.95 C3.12 263.77 3.21 263.59 3.16 263.42
										 C3.12 263.3 3.04 263.18 2.95 263.06 C2.92 263.02 2.89 262.97 2.86 262.93 C2.9 262.94 2.93
										 262.94 2.98 262.95 C3 262.96 3.02 262.95 3.05 262.96 C3.43 263.4 3.66 263.92 3.67 264.33
										 C3.67 264.38 3.72 264.42 3.77 264.42 C3.77 264.42 3.77 264.42 3.77 264.42 C3.82 264.42 3.86
										 264.38 3.86 264.33 C3.85 263.9 3.62 263.37 3.25 262.91 C3.29 262.89 3.32 262.87 3.36 262.84
										 C3.56 262.95 3.78 263.01 4.05 263.02 C4.38 263.02 4.41 263.16 4.42 263.33 C4.42 263.39 4.42
										 263.45 4.42 263.5 C4.41 263.66 4.41 263.83 4.48 263.95 C4.5 263.98 4.53 263.99 4.56 263.99
										 C4.57 263.99 4.59 263.99 4.6 263.98 C4.65 263.95 4.66 263.9 4.64 263.85 C4.59 263.78 4.6
										 263.64 4.6 263.51 C4.6 263.45 4.61 263.39 4.61 263.32 C4.59 263.11 4.52 262.84 4.05 262.84
										 C3.83 262.83 3.65 262.78 3.48 262.7 C3.55 262.6 3.6 262.47 3.64 262.35 C3.97 262.54 4.28
										 262.74 4.41 262.25 C4.46 262.28 4.5 262.31 4.54 262.36 C4.63 262.46 4.71 262.58 4.78 262.71
										 L4.81 262.75 C4.85 262.82 4.89 262.89 4.94 262.95 C4.99 263.03 5.03 263.1 5.08 263.15 C5.21
										 263.3 5.36 263.35 5.49 263.38 C5.5 263.38 5.51 263.38 5.51 263.38 C5.56 263.38 5.59 263.36
										 5.6 263.31 C5.62 263.26 5.58 263.22 5.53 263.2 C5.38 263.17 5.29 263.12 5.22 263.03 C5.18
										 262.99 5.14 262.93 5.09 262.85 C5.05 262.79 5 262.72 4.96 262.65 L4.94 262.61 C4.86 262.48
										 4.78 262.35 4.68 262.24 C4.61 262.16 4.53 262.1 4.44 262.06 C4.44 261.97 4.42 261.87 4.37
										 261.79 C4.41 261.59 4.5 261.43 4.63 261.33 C4.79 261.22 5 261.19 5.25 261.16 C5.47 261.17
										 5.71 261.17 5.91 261.08 C6.15 260.98 6.3 260.76 6.38 260.4 C6.39 260.35 6.36 260.3 6.31
										 260.29 C6.26 260.28 6.21 260.31 6.2 260.36 C6.11 260.75 5.95 260.86 5.83 260.91 C5.67 260.99
										 5.46 260.98 5.25 260.98 L5.23 260.98 L5.22 260.98 C4.96 261.01 4.72 261.04 4.52 261.19 C4.38
										 261.29 4.29 261.45 4.23 261.64 C4.17 261.6 4.12 261.56 4.05 261.54 C3.76 261.46 3.36 261.61
										 3.49 261.94 C3.49 261.94 3.46 261.93 3.42 261.92 C3.47 261.62 3.37 261.21 3.21 261.06 C3.06
										 260.93 3.05 260.87 3.05 260.86 C3.05 260.84 3.08 260.81 3.12 260.78 L3.14 260.76 C3.29 260.61
										 3.42 260.41 3.09 259.91 C3.06 259.87 3 259.86 2.96 259.88 C2.92 259.91 2.9 259.97 2.93 260.01
										 C3.21 260.43 3.1 260.54 3.01 260.63 L2.99 260.65 C2.93 260.7 2.87 260.76 2.87 260.86 C2.87
										 260.96 2.94 261.06 3.09 261.2 C3.2 261.3 3.29 261.66 3.24 261.91 C3.15 261.91 3.04 261.93
										 2.94 261.98 C2.9 262 2.88 262.01 2.85 262.03 C2.72 261.79 2.6 261.45 2.52 261 C2.47 260.73
										 2.21 260.75 1.99 260.76 L1.91 260.77 C1.61 260.77 1.35 260.74 1.06 260.4 C1.02 260.36 0.97
										 260.35 0.93 260.39 C0.89 260.42 0.88 260.48 0.92 260.51 C1.28 260.95 1.66 260.95 1.91 260.95
										 L2 260.95 C2.26 260.93 2.32 260.94 2.34 261.03 C2.42 261.48 2.55 261.87 2.73 262.18 C2.72
										 262.21 2.69 262.25 2.65 262.3 C2.59 262.24 2.53 262.19 2.47 262.15 C2.36 262.05 2.23 261.95
										 2.2 261.9 C2.24 261.83 2.24 261.77 2.2 261.72 C2.12 261.62 1.93 261.66 1.55 261.76 L1.35
										 261.8 C0.96 261.89 0.52 262 0.14 261.82 C0.1 261.8 0.04 261.82 0.02 261.87 C0 261.92 0.02
										 261.97 0.07 261.99 C0.5 262.19 0.97 262.08 1.39 261.98 Z" class="st11"/>
						</g>
						<g id="shape40-57" v:mID="40" v:groupContext="shape" transform="translate(16.6021,-16.9266)">
							<title>Sheet.40</title>
							<path d="M0.1 261.81 C0.1 261.81 0.1 261.81 0.11 261.81 C0.11 261.81 0.51 261.77 0.98 261.73 C1.11 261.72
										 1.24 261.72 1.37 261.71 C1.73 261.69 2.03 261.67 2.18 261.61 C2.3 261.56 2.41 261.49 2.51
										 261.39 C2.63 261.4 2.75 261.39 2.87 261.36 C2.83 261.53 2.8 261.7 2.79 261.87 C2.79 261.87
										 2.79 261.87 2.79 261.87 C2.68 261.95 2.59 262.02 2.53 262.06 C2.44 262.12 2.38 262.1 2.25
										 262.04 C2.04 261.95 1.75 261.83 1.15 262.15 C1.1 262.17 1.09 262.22 1.11 262.27 C1.13 262.3
										 1.16 262.32 1.19 262.32 C1.2 262.32 1.22 262.32 1.23 262.31 C1.76 262.03 1.99 262.13 2.18
										 262.21 C2.31 262.27 2.45 262.33 2.63 262.21 C2.67 262.19 2.72 262.15 2.78 262.11 C2.78 262.12
										 2.78 262.13 2.78 262.15 C2.77 262.25 2.77 262.35 2.76 262.42 C2.71 262.86 2.72 262.97 2.81
										 263.01 C2.9 263.06 2.97 262.98 3.05 262.89 C3.14 262.8 3.26 262.67 3.37 262.69 C3.45 262.7
										 3.56 262.79 3.7 263.12 C3.72 263.16 3.75 263.18 3.79 263.18 C3.8 263.18 3.81 263.18 3.82
										 263.17 C3.87 263.15 3.89 263.1 3.87 263.05 C3.73 262.72 3.58 262.54 3.4 262.51 C3.19 262.47
										 3.03 262.65 2.91 262.77 C2.91 262.77 2.91 262.77 2.91 262.77 C2.91 262.7 2.92 262.6 2.94
										 262.44 C2.95 262.37 2.95 262.27 2.96 262.15 C2.96 262.09 2.97 262.03 2.97 261.96 C3.13 261.84
										 3.32 261.7 3.53 261.56 C3.59 261.69 3.51 261.74 3.74 261.91 C3.88 262.02 4.02 262.12 4.11
										 262.18 C4.21 262.25 4.27 262.28 4.27 262.28 C4.09 262.53 4.38 262.8 4.68 262.93 C4.69 262.98
										 4.7 263.03 4.72 263.09 C4.79 263.36 4.87 263.66 4.84 263.91 C4.78 264.42 4.67 264.66 4.54
										 264.91 L4.52 264.97 C4.49 265.01 4.51 265.07 4.56 265.09 C4.57 265.1 4.59 265.1 4.6 265.1
										 C4.63 265.1 4.67 265.08 4.68 265.05 L4.71 264.99 C4.83 264.73 4.96 264.47 5.02 263.93 C5.05
										 263.65 4.97 263.32 4.9 263.04 C4.89 263.02 4.89 263.01 4.88 262.99 C5.21 263.04 5.49 262.89
										 5.53 262.63 C5.53 262.62 5.53 262.62 5.53 262.62 C5.63 262.67 5.72 262.72 5.8 262.76 C5.88
										 262.8 5.96 262.84 6.04 262.88 C6.17 262.95 6.18 263.03 6.2 263.22 C6.22 263.44 6.25 263.73
										 6.58 264.05 C6.62 264.09 6.67 264.09 6.71 264.05 C6.74 264.01 6.74 263.96 6.71 263.92 C6.42
										 263.65 6.4 263.41 6.38 263.21 C6.37 263.02 6.35 262.83 6.12 262.72 C6.04 262.68 5.96 262.64
										 5.88 262.59 C5.74 262.53 5.62 262.46 5.51 262.41 C5.44 262.17 5.21 261.93 4.83 261.95 C4.81
										 261.72 4.74 261.41 4.59 261.17 C4.82 261.15 5.06 261.18 5.29 261.3 C5.89 261.58 6.26 261.58
										 6.44 261.3 C6.64 260.99 6.48 260.44 6.37 260.15 C6.35 260.1 6.3 260.07 6.25 260.09 C6.2
										 260.11 6.18 260.16 6.2 260.21 C6.37 260.66 6.4 261.03 6.29 261.2 C6.24 261.27 6.11 261.48
										 5.37 261.13 C5.06 260.98 4.75 260.95 4.45 261 C4.35 260.92 4.24 260.85 4.1 260.84 C3.65
										 260.77 3.68 260.9 3.54 260.79 C3.54 260.77 3.54 260.76 3.54 260.75 C3.66 260.68 3.79 260.62
										 3.92 260.57 C4.28 260.41 4.62 260.26 4.7 260.02 C4.79 259.72 4.61 259.36 4.4 258.94 C4.29
										 258.74 4.18 258.52 4.1 258.29 C3.99 257.99 3.96 257.73 3.99 257.52 C4.01 257.34 4.09 257.21
										 4.15 257.13 C4.18 257.09 4.17 257.04 4.13 257 C4.1 256.97 4.04 256.98 4.01 257.02 C3.93
										 257.11 3.84 257.27 3.8 257.5 C3.77 257.74 3.81 258.02 3.92 258.36 C4.01 258.59 4.12 258.81
										 4.23 259.03 C4.43 259.41 4.59 259.73 4.53 259.96 C4.47 260.13 4.15 260.27 3.85 260.4 C3.74
										 260.45 3.63 260.5 3.52 260.55 C3.49 260.3 3.4 260.02 3.14 259.81 C3.15 259.65 3.11 259.47
										 2.93 259.25 C2.75 259.01 2.71 258.7 2.68 258.43 C2.66 258.2 2.61 257.83 2.23 257.8 C2.08
										 257.78 1.97 257.8 1.88 257.82 C1.8 257.84 1.73 257.85 1.64 257.84 C1.43 257.82 1.09 257.67
										 0.48 257.34 C0.44 257.31 0.38 257.33 0.35 257.37 C0.33 257.42 0.35 257.47 0.39 257.5 C1.03
										 257.85 1.38 258 1.62 258.02 C1.73 258.04 1.82 258.02 1.91 258 C2 257.99 2.09 257.97 2.22
										 257.98 C2.39 257.99 2.46 258.11 2.5 258.45 C2.53 258.73 2.57 259.09 2.79 259.37 C2.89 259.49
										 2.94 259.59 2.95 259.69 C2.95 259.69 2.95 259.69 2.95 259.69 C2.29 259.35 1.7 259.62 1.56
										 259.99 C1.49 260.17 1.49 260.42 1.56 260.67 C1.64 260.92 1.81 261.14 2.1 261.29 C2.16 261.32
										 2.21 261.34 2.26 261.36 C2.22 261.39 2.16 261.42 2.11 261.44 C1.99 261.49 1.67 261.51 1.36
										 261.52 C1.23 261.53 1.09 261.54 0.96 261.55 C0.49 261.58 0.09 261.63 0.09 261.63 C0.04 261.63
										 0 261.68 0.01 261.73 C0.01 261.77 0.05 261.81 0.1 261.81 ZM2.99 261.71 C3.01 261.57 3.03
										 261.43 3.07 261.3 C3.13 261.28 3.18 261.26 3.23 261.24 C3.29 261.29 3.34 261.34 3.41 261.4
										 C3.41 261.41 3.41 261.41 3.42 261.41 C3.26 261.51 3.12 261.62 2.99 261.71 Z" class="st11"/>
						</g>
						<g id="shape41-59" v:mID="41" v:groupContext="shape" transform="translate(18.7168,1.13687E-13)">
							<title>Sheet.41</title>
							<path d="M8.73 261.08 C8.55 261 8.05 260.88 7.31 261.42 C7.14 261.55 6.98 261.68 6.82 261.81 L6.71 261.91
										 C6.31 262.22 5.9 262.53 5.62 262.51 C5.45 262.5 5.3 262.25 5.14 261.99 L5.1 261.92 C5.04
										 261.81 4.97 261.71 4.9 261.61 C5.14 261.53 5.42 261.4 5.61 261.14 C5.63 261.11 5.64 261.08
										 5.66 261.05 C5.7 261.04 5.74 261.04 5.77 261.02 C5.85 261 5.92 260.96 6.01 260.9 L6.03 260.88
										 C6.08 260.83 6.15 260.76 6.21 260.68 C6.35 260.48 6.58 260.38 6.81 260.29 C6.88 260.25 6.96
										 260.22 7.02 260.19 C7.23 260.08 7.58 259.91 7.52 259.54 C7.5 259.38 7.44 259.27 7.39 259.18
										 C7.35 259.1 7.32 259.04 7.3 258.95 C7.26 258.8 7.28 258.57 7.33 258.15 C7.34 258 7.36 257.84
										 7.38 257.64 C7.38 257.59 7.35 257.55 7.29 257.54 C7.24 257.54 7.2 257.58 7.19 257.63 C7.18
										 257.82 7.16 257.98 7.14 258.13 C7.1 258.59 7.07 258.82 7.12 258.99 C7.14 259.1 7.19 259.19
										 7.23 259.26 C7.28 259.35 7.32 259.44 7.34 259.57 C7.37 259.77 7.23 259.88 6.94 260.02 C6.88
										 260.06 6.81 260.09 6.73 260.12 C6.5 260.22 6.23 260.34 6.06 260.57 C6.01 260.64 5.95 260.7
										 5.9 260.75 L5.89 260.76 C5.85 260.79 5.81 260.81 5.77 260.82 C5.97 260.05 5.6 259.59 5.19
										 259.55 C5.02 259.53 4.81 259.57 4.62 259.65 C4.53 259.69 4.44 259.75 4.35 259.82 C4.26 259.88
										 4.18 259.95 4.11 260.05 C4.04 260.13 3.99 260.24 3.95 260.35 C3.93 260.41 3.91 260.47 3.9
										 260.52 C3.86 260.48 3.82 260.43 3.79 260.38 C3.74 260.3 3.69 260.11 3.63 259.9 C3.6 259.79
										 3.56 259.66 3.52 259.53 C3.44 259.25 3.36 259.02 3.28 258.83 L3.15 258.53 C3.13 258.48 3.07
										 258.46 3.03 258.48 C2.98 258.5 2.96 258.55 2.98 258.6 L3.11 258.91 C3.2 259.1 3.27 259.34
										 3.35 259.59 C3.39 259.71 3.42 259.84 3.45 259.95 C3.52 260.19 3.57 260.38 3.63 260.48 C3.7
										 260.58 3.79 260.67 3.89 260.75 C3.9 260.88 3.93 260.99 3.98 261.1 C3.79 261.09 3.61 261.09
										 3.43 261.1 C3.43 261.09 3.42 261.08 3.41 261.08 C3.32 260.99 3.25 260.91 3.21 260.86 C3.14
										 260.78 3.15 260.72 3.19 260.59 C3.2 260.56 3.21 260.52 3.22 260.48 C3.26 260.28 3.26 259.99
										 2.9 259.56 C2.87 259.52 2.81 259.51 2.77 259.54 C2.73 259.58 2.73 259.63 2.76 259.67 C3.07
										 260.05 3.07 260.28 3.04 260.44 C3.03 260.47 3.02 260.51 3.01 260.54 C2.97 260.67 2.93 260.81
										 3.06 260.98 C3.09 261.01 3.13 261.06 3.18 261.11 C3.05 261.11 2.93 261.12 2.86 261.12 C2.39
										 261.09 2.29 261.1 2.26 261.2 C2.22 261.28 2.29 261.34 2.38 261.41 C2.4 261.43 2.43 261.46
										 2.46 261.48 C2.54 261.56 2.62 261.64 2.62 261.73 C2.61 261.84 2.44 261.97 2.15 262.08 C2.1
										 262.09 2.08 262.15 2.1 262.19 C2.12 262.24 2.17 262.27 2.22 262.25 C2.59 262.11 2.79 261.94
										 2.8 261.75 C2.81 261.58 2.7 261.45 2.58 261.35 C2.56 261.33 2.53 261.31 2.51 261.29 C2.59
										 261.29 2.69 261.29 2.85 261.3 C2.94 261.3 3.06 261.3 3.2 261.29 C3.25 261.29 3.3 261.29
										 3.36 261.28 C3.5 261.42 3.66 261.59 3.81 261.79 C3.68 261.87 3.63 261.8 3.45 262.04 C3.33
										 262.2 3.22 262.35 3.15 262.45 C3.08 262.56 3.03 262.62 3.03 262.63 C2.76 262.45 2.46 262.76
										 2.28 263.07 C2.25 263.08 2.21 263.09 2.16 263.1 C2.01 263.13 1.84 263.17 1.66 263.2 C1.46
										 263.22 1.31 263.21 1.18 263.19 C0.94 263.15 0.73 263.08 0.54 262.97 C0.39 262.89 0.28 262.81
										 0.15 262.71 C0.11 262.68 0.06 262.69 0.03 262.73 C0 262.77 0.02 262.84 0.06 262.87 C0.17
										 262.95 0.29 263.04 0.45 263.13 C0.66 263.25 0.88 263.32 1.15 263.37 C1.29 263.4 1.46 263.4
										 1.68 263.38 C1.86 263.35 2.04 263.31 2.19 263.28 C2.08 263.62 2.2 263.92 2.51 263.95 C2.51
										 263.95 2.51 263.95 2.52 263.95 C2.47 264.02 2.42 264.09 2.36 264.16 C2.28 264.27 2.2 264.38
										 2.14 264.47 C2.01 264.63 1.87 264.63 1.65 264.64 L1.54 264.64 C1.29 264.66 0.99 264.68 0.57
										 264.93 C0.52 264.95 0.51 265.01 0.53 265.05 C0.55 265.08 0.58 265.1 0.61 265.1 C0.63 265.1
										 0.64 265.09 0.66 265.09 C1.04 264.86 1.33 264.84 1.55 264.83 L1.66 264.82 C1.89 264.82 2.1
										 264.81 2.28 264.58 C2.35 264.48 2.43 264.38 2.51 264.27 C2.6 264.16 2.68 264.04 2.76 263.93
										 C3.06 263.84 3.37 263.58 3.38 263.18 C3.65 263.13 4.02 263.01 4.29 262.8 C4.31 263.06 4.26
										 263.32 4.12 263.56 C3.84 264.08 3.75 264.39 3.82 264.59 C3.85 264.69 3.91 264.76 4.01 264.81
										 C4.09 264.84 4.19 264.86 4.3 264.86 C4.4 264.86 4.5 264.85 4.62 264.82 C4.86 264.77 5.13
										 264.66 5.43 264.51 C5.47 264.49 5.49 264.44 5.47 264.39 C5.45 264.34 5.39 264.33 5.35 264.35
										 C5.06 264.49 4.8 264.59 4.58 264.64 C4.37 264.69 4.19 264.69 4.09 264.64 C4.04 264.62 4.01
										 264.58 3.99 264.54 C3.94 264.39 4.04 264.1 4.29 263.65 C4.46 263.33 4.51 263 4.45 262.66
										 C4.55 262.54 4.63 262.41 4.64 262.25 C4.69 261.78 4.54 261.84 4.65 261.67 C4.67 261.67 4.69
										 261.66 4.71 261.66 C4.79 261.77 4.87 261.88 4.94 262.01 L4.99 262.08 C5.17 262.39 5.35 262.67
										 5.61 262.69 C5.62 262.69 5.63 262.69 5.64 262.69 C5.98 262.69 6.39 262.39 6.82 262.05 L6.94
										 261.95 C7.1 261.82 7.26 261.69 7.42 261.57 C8.08 261.09 8.51 261.18 8.66 261.25 C8.71 261.27
										 8.76 261.24 8.78 261.2 C8.8 261.15 8.78 261.1 8.73 261.08 ZM3.61 261.28 C3.76 261.27 3.92
										 261.28 4.06 261.29 C4.09 261.35 4.12 261.4 4.14 261.45 C4.09 261.51 4.04 261.57 3.97 261.65
										 C3.97 261.65 3.96 261.66 3.95 261.67 C3.84 261.52 3.72 261.39 3.61 261.28 Z" class="st11"/>
						</g>
						<g id="shape42-61" v:mID="42" v:groupContext="shape" transform="translate(11.0021,-2.08717)">
							<title>Sheet.42</title>
							<path d="M5.41 263.36 C5.32 263.35 5.23 263.35 5.14 263.35 C5.03 263.35 4.89 263.35 4.82 263.34 C4.83
										 263.32 4.84 263.29 4.84 263.27 C4.85 263.15 4.72 263.01 4.45 262.71 C4.44 262.7 4.43 262.69
										 4.42 262.67 C4.44 262.66 4.47 262.65 4.49 262.64 C4.73 262.84 5.18 262.9 5.59 262.78 C6.15
										 262.61 6.17 261.99 6.02 261.63 C5.94 261.45 5.79 261.32 5.59 261.26 C5.4 261.19 5.16 261.19
										 4.9 261.26 C4.49 261.37 4.53 261.88 4.48 262.17 C4.44 262.18 4.42 262.19 4.4 262.19 C4.37
										 262.07 4.31 261.96 4.25 261.85 C4.19 261.74 4.13 261.63 4.12 261.54 C4.1 261.44 4.27 261.32
										 4.45 261.19 C4.52 261.13 4.59 261.08 4.66 261.02 C4.96 260.77 5.26 260.46 5.17 260.02 C5.16
										 259.97 5.11 259.94 5.06 259.95 C5.01 259.96 4.98 260.01 4.99 260.06 C5.06 260.4 4.82 260.65
										 4.54 260.88 C4.47 260.94 4.4 260.99 4.34 261.04 C4.11 261.21 3.91 261.36 3.93 261.56 C3.95
										 261.68 4.02 261.81 4.09 261.94 C4.12 262 4.15 262.06 4.17 262.11 C4.13 262.1 4.07 262.08
										 4 262.06 C3.96 262.05 3.93 262.04 3.89 262.04 C3.56 261.6 3.28 261.03 3.36 260.59 C3.37
										 260.54 3.34 260.49 3.29 260.48 C3.24 260.47 3.19 260.5 3.18 260.56 C3.1 260.96 3.29 261.51
										 3.67 262.05 C3.61 262.07 3.55 262.09 3.49 262.12 C3.26 261.97 2.99 261.88 2.66 261.85 C2.21
										 261.8 2.17 261.65 2.18 261.5 C2.18 261.45 2.18 261.39 2.19 261.33 C2.21 261.17 2.23 261
										 2.13 260.87 C2.1 260.83 2.05 260.82 2.01 260.85 C1.96 260.88 1.95 260.93 1.98 260.97 C2.04
										 261.05 2.02 261.18 2.01 261.31 C2 261.37 1.99 261.44 1.99 261.5 C1.99 261.82 2.19 261.98
										 2.64 262.03 C2.91 262.05 3.13 262.12 3.32 262.22 C3.21 262.32 3.13 262.43 3.07 262.56 C2.7
										 262.33 2.34 262.09 2.14 262.58 C1.98 262.5 1.86 262.33 1.73 262.16 L1.71 262.14 C1.63 262
										 1.55 261.88 1.47 261.77 C1.37 261.62 1.28 261.53 1.17 261.48 C1.12 261.46 1.07 261.45 1.02
										 261.44 L0.98 261.53 L0.99 261.44 C0.94 261.42 0.9 261.46 0.89 261.51 C0.88 261.56 0.91 261.61
										 0.96 261.62 L0.98 261.62 C1.03 261.63 1.06 261.63 1.09 261.65 C1.17 261.68 1.24 261.75 1.32
										 261.87 C1.39 261.98 1.47 262.1 1.56 262.24 L1.58 262.27 C1.73 262.47 1.88 262.66 2.08 262.76
										 C2.07 262.86 2.11 262.96 2.16 263.05 C2.02 263.45 1.74 263.55 1.53 263.59 C1.37 263.62 1.22
										 263.63 1.07 263.63 C0.88 263.64 0.69 263.64 0.52 263.72 C0.26 263.84 0.1 264.05 0.01 264.41
										 C0 264.46 0.03 264.51 0.08 264.52 C0.09 264.52 0.09 264.52 0.1 264.52 C0.14 264.52 0.18
										 264.5 0.19 264.45 C0.29 264.07 0.45 263.95 0.59 263.88 C0.73 263.82 0.9 263.82 1.08 263.81
										 C1.24 263.81 1.4 263.81 1.56 263.77 C1.92 263.71 2.16 263.52 2.3 263.2 C2.36 263.25 2.42
										 263.29 2.5 263.31 C2.8 263.43 3.27 263.33 3.18 262.98 C3.18 262.98 3.21 263 3.26 263.01
										 C3.16 263.3 3.21 263.72 3.36 263.89 C3.5 264.05 3.5 264.1 3.5 264.11 C3.49 264.13 3.45 264.15
										 3.42 264.18 C3.22 264.3 3.04 264.48 3.31 265.05 C3.33 265.08 3.36 265.1 3.4 265.1 C3.41
										 265.1 3.42 265.1 3.44 265.09 C3.48 265.07 3.5 265.01 3.48 264.97 C3.25 264.5 3.39 264.41
										 3.51 264.33 C3.58 264.29 3.66 264.24 3.68 264.14 C3.69 264.04 3.64 263.93 3.49 263.77 C3.41
										 263.67 3.35 263.31 3.44 263.06 C3.44 263.05 3.44 263.05 3.45 263.05 C3.56 263.06 3.69 263.07
										 3.82 263.03 C3.87 263.01 3.9 263 3.94 262.98 C4.04 263.28 4.1 263.64 4.08 264.06 C4.08 264.31
										 4.31 264.35 4.52 264.39 C4.56 264.4 4.61 264.41 4.66 264.42 C4.92 264.47 5.22 264.56 5.41
										 264.98 C5.42 265.01 5.46 265.03 5.49 265.03 C5.5 265.03 5.52 265.03 5.53 265.02 C5.58 265
										 5.6 264.95 5.57 264.9 C5.36 264.43 5.03 264.3 4.7 264.24 C4.65 264.23 4.6 264.22 4.55 264.21
										 C4.31 264.17 4.27 264.15 4.27 264.07 C4.28 263.6 4.22 263.2 4.09 262.87 C4.12 262.84 4.16
										 262.8 4.25 262.75 C4.27 262.78 4.29 262.81 4.32 262.83 C4.46 262.99 4.62 263.17 4.65 263.24
										 C4.62 263.28 4.57 263.34 4.6 263.41 C4.64 263.52 4.8 263.53 5.14 263.53 C5.22 263.54 5.31
										 263.54 5.41 263.54 C5.92 263.55 6.49 263.61 6.8 263.92 C6.82 263.94 6.85 263.95 6.87 263.95
										 C6.89 263.95 6.92 263.94 6.93 263.92 C6.97 263.89 6.97 263.83 6.93 263.79 C6.58 263.43 5.96
										 263.37 5.41 263.36 Z" class="st11"/>
						</g>
						<g id="shape43-63" v:mID="43" v:groupContext="shape" transform="translate(2.25163,-1.19903)">
							<title>Sheet.43</title>
							<path d="M6.65 260.61 L6.6 260.62 C6.57 260.62 6.48 260.62 6.35 260.62 L5.74 260.61 C5.61 260.61 5.47
										 260.6 5.34 260.59 C4.99 260.57 4.69 260.56 4.53 260.6 C4.41 260.63 4.29 260.69 4.19 260.77
										 C4.06 260.75 3.94 260.75 3.83 260.76 C3.88 260.62 3.91 260.48 3.94 260.36 L3.96 260.26 C3.97
										 260.26 3.97 260.25 3.98 260.25 C4.09 260.19 4.19 260.14 4.25 260.11 C4.35 260.06 4.4 260.09
										 4.52 260.16 C4.72 260.28 4.99 260.43 5.63 260.19 C5.67 260.18 5.7 260.12 5.68 260.08 C5.66
										 260.03 5.61 260 5.56 260.02 C5.01 260.23 4.79 260.1 4.62 260 C4.49 259.93 4.36 259.86 4.17
										 259.94 C4.13 259.96 4.07 259.99 4.01 260.02 L4.08 259.72 C4.2 259.27 4.21 259.17 4.12 259.12
										 C4.05 259.07 3.97 259.12 3.89 259.19 C3.86 259.2 3.83 259.22 3.8 259.25 C3.67 259.34 3.58
										 259.37 3.51 259.34 C3.41 259.3 3.33 259.12 3.28 258.83 C3.27 258.78 3.22 258.74 3.17 258.75
										 C3.12 258.76 3.09 258.81 3.09 258.86 C3.16 259.23 3.27 259.44 3.45 259.51 C3.62 259.58 3.79
										 259.48 3.91 259.4 C3.93 259.38 3.96 259.36 3.98 259.34 C3.97 259.41 3.94 259.51 3.9 259.67
										 L3.8 260.14 C3.63 260.24 3.42 260.35 3.19 260.45 C3.14 260.3 3.23 260.27 3.03 260.06 C2.89
										 259.92 2.78 259.79 2.69 259.7 C2.61 259.61 2.56 259.55 2.55 259.55 C2.76 259.34 2.55 258.98
										 2.27 258.76 C2.27 258.73 2.27 258.69 2.27 258.65 L2.27 258.53 C2.27 258.22 2.27 257.91 2.37
										 257.66 C2.57 257.16 2.8 256.97 3 256.79 L3.06 256.74 C3.1 256.71 3.1 256.65 3.07 256.61
										 C3.04 256.57 2.98 256.57 2.94 256.6 L2.88 256.66 C2.67 256.84 2.42 257.06 2.2 257.59 C2.08
										 257.87 2.08 258.21 2.08 258.53 L2.08 258.64 C1.78 258.47 1.46 258.53 1.37 258.82 C1.36 258.82
										 1.36 258.83 1.36 258.83 C1.24 258.7 1.09 258.54 0.93 258.35 C0.8 258.21 0.82 258.06 0.86
										 257.85 L0.87 257.76 C0.91 257.51 0.95 257.17 0.8 256.64 C0.79 256.59 0.74 256.56 0.69 256.58
										 C0.64 256.59 0.61 256.64 0.63 256.69 C0.77 257.19 0.72 257.49 0.69 257.75 L0.68 257.82 C0.64
										 258.05 0.6 258.27 0.79 258.47 C0.96 258.68 1.16 258.89 1.34 259.07 C1.36 259.35 1.54 259.69
										 1.94 259.76 C1.92 260.03 1.95 260.38 2.08 260.66 C1.82 260.63 1.59 260.53 1.38 260.37 C0.97
										 260.03 0.68 259.89 0.46 259.91 C0.36 259.92 0.27 259.97 0.21 260.05 C0.03 260.27 0 260.76
										 0.14 261.36 C0.15 261.4 0.19 261.43 0.23 261.43 C0.23 261.43 0.24 261.43 0.25 261.43 C0.3
										 261.42 0.33 261.37 0.32 261.32 C0.2 260.79 0.21 260.33 0.35 260.17 C0.38 260.12 0.43 260.1
										 0.48 260.09 C0.64 260.08 0.91 260.22 1.26 260.51 C1.54 260.73 1.84 260.84 2.19 260.85 C2.27
										 260.96 2.38 261.05 2.52 261.1 C2.97 261.23 2.95 261.1 3.08 261.23 C3.08 261.25 3.08 261.27
										 3.08 261.28 C2.95 261.33 2.81 261.37 2.67 261.41 L2.61 261.43 C2.26 261.52 1.93 261.62 1.83
										 261.85 C1.72 262.1 1.82 262.44 1.92 262.7 C1.96 262.82 2.01 262.95 2.06 263.07 C2.14 263.28
										 2.22 263.49 2.28 263.71 C2.47 264.41 2.26 264.74 2.13 264.88 C2.09 264.91 2.09 264.97 2.13
										 265.01 C2.15 265.02 2.17 265.03 2.19 265.03 C2.22 265.03 2.24 265.02 2.26 265.01 C2.42 264.84
										 2.67 264.45 2.46 263.66 C2.4 263.44 2.31 263.22 2.23 263.01 C2.18 262.88 2.13 262.76 2.09
										 262.64 C1.96 262.29 1.93 262.07 2 261.92 C2.06 261.77 2.37 261.69 2.66 261.6 L2.72 261.59
										 C2.84 261.56 2.96 261.52 3.07 261.48 C3.07 261.59 3.09 261.72 3.12 261.84 C3.17 261.99 3.25
										 262.15 3.38 262.29 C3.35 262.45 3.38 262.64 3.54 262.88 C3.69 263.11 3.7 263.37 3.71 263.64
										 L3.72 263.74 C3.73 264.03 3.79 264.37 4.14 264.44 C4.3 264.47 4.41 264.47 4.51 264.46 C4.6
										 264.45 4.67 264.45 4.76 264.47 C4.87 264.49 4.99 264.54 5.15 264.62 C5.33 264.73 5.57 264.88
										 5.91 265.08 C5.93 265.09 5.94 265.1 5.96 265.1 C5.99 265.1 6.02 265.08 6.04 265.05 C6.06
										 265.01 6.05 264.95 6.01 264.93 C5.67 264.72 5.43 264.57 5.24 264.46 C5.06 264.36 4.92 264.31
										 4.79 264.29 C4.68 264.26 4.59 264.27 4.5 264.28 C4.41 264.28 4.31 264.29 4.18 264.26 C3.99
										 264.22 3.91 264.07 3.9 263.73 L3.9 263.64 C3.88 263.35 3.87 263.05 3.69 262.78 C3.6 262.64
										 3.56 262.53 3.56 262.43 C3.56 262.43 3.56 262.44 3.56 262.44 C4.2 262.85 4.8 262.64 4.98
										 262.29 C5.07 262.11 5.1 261.86 5.05 261.61 C4.99 261.35 4.85 261.11 4.58 260.93 C4.52 260.89
										 4.47 260.87 4.42 260.84 C4.47 260.82 4.53 260.79 4.58 260.78 C4.71 260.75 5.02 260.76 5.33
										 260.78 C5.46 260.79 5.6 260.79 5.74 260.8 L6.35 260.81 C6.48 260.8 6.57 260.8 6.61 260.8
										 L6.61 260.71 L6.69 260.66 L6.65 260.61 ZM3.74 260.38 C3.72 260.5 3.67 260.65 3.62 260.79
										 C3.55 260.8 3.5 260.81 3.44 260.83 C3.39 260.77 3.34 260.7 3.28 260.63 C3.28 260.62 3.28
										 260.62 3.27 260.61 C3.44 260.54 3.6 260.46 3.74 260.38 Z" class="st11"/>
						</g>
						<g id="shape44-65" v:mID="44" v:groupContext="shape" transform="translate(5.97491,-9.73424)">
							<title>Sheet.44</title>
							<path d="M4.77 262.64 C4.84 262.66 4.9 262.68 4.97 262.68 C5.04 262.68 5.11 262.66 5.19 262.63 C5.23
										 262.61 5.25 262.55 5.23 262.51 C5.21 262.46 5.15 262.44 5.11 262.46 C5.02 262.5 4.93 262.5
										 4.83 262.46 C4.71 262.43 4.57 262.36 4.43 262.29 C4.2 262.19 3.92 262.07 3.68 262.11 C3.63
										 262.04 3.56 261.98 3.47 261.95 C3.38 261.75 3.35 261.58 3.39 261.42 C3.44 261.25 3.58 261.08
										 3.77 260.94 C3.82 260.9 3.87 260.86 3.92 260.82 C4.05 260.72 4.17 260.63 4.24 260.49 C4.37
										 260.27 4.37 260.01 4.23 259.67 C4.21 259.62 4.16 259.59 4.11 259.61 C4.07 259.63 4.04 259.69
										 4.06 259.73 C4.21 260.11 4.15 260.29 4.08 260.4 C4.02 260.51 3.92 260.58 3.81 260.67 C3.76
										 260.71 3.7 260.76 3.66 260.8 C3.44 260.96 3.28 261.16 3.21 261.38 C3.17 261.54 3.19 261.71
										 3.26 261.9 C3.2 261.9 3.14 261.9 3.08 261.93 C2.81 262.02 2.61 262.37 2.91 262.55 C2.91
										 262.55 2.89 262.56 2.86 262.57 C2.7 262.31 2.37 262.05 2.15 262.03 C1.96 262.02 1.91 261.99
										 1.9 261.98 C1.89 261.96 1.9 261.92 1.9 261.87 L1.9 261.84 C1.93 261.62 1.87 261.4 1.33 261.22
										 C1.28 261.21 1.23 261.23 1.21 261.28 C1.2 261.33 1.22 261.38 1.27 261.4 C1.75 261.55 1.73
										 261.7 1.72 261.82 L1.72 261.85 C1.71 261.93 1.7 262.02 1.76 262.09 C1.82 262.17 1.94 262.2
										 2.14 262.22 C2.28 262.23 2.57 262.45 2.71 262.68 C2.64 262.73 2.58 262.8 2.54 262.89 C2.53
										 262.93 2.52 262.95 2.51 262.98 C2.25 262.87 1.94 262.7 1.59 262.41 C1.38 262.23 1.19 262.42
										 1.02 262.59 L0.99 262.62 C0.81 262.78 0.58 262.97 0.11 262.91 C0.06 262.91 0.01 262.94 0.01
										 262.99 C0 263.04 0.04 263.09 0.09 263.09 C0.65 263.16 0.92 262.92 1.11 262.76 L1.15 262.72
										 C1.35 262.52 1.41 262.49 1.47 262.55 C1.88 262.88 2.24 263.07 2.53 263.18 C2.54 263.21 2.54
										 263.25 2.54 263.3 C2.45 263.29 2.36 263.29 2.28 263.29 C2.15 263.29 2.01 263.28 1.96 263.27
										 C1.93 263.18 1.88 263.15 1.84 263.14 C1.7 263.11 1.59 263.29 1.37 263.59 L1.35 263.63 C1.24
										 263.8 1.11 263.98 0.98 264.15 C0.94 264.19 0.91 264.22 0.87 264.26 C0.83 264.29 0.8 264.32
										 0.76 264.34 C0.67 264.4 0.58 264.45 0.47 264.49 C0.43 264.51 0.4 264.56 0.42 264.61 C0.43
										 264.64 0.47 264.67 0.51 264.67 C0.52 264.67 0.53 264.67 0.54 264.66 C0.65 264.62 0.76 264.56
										 0.86 264.5 C0.91 264.47 0.95 264.43 0.99 264.4 C1.03 264.36 1.08 264.31 1.12 264.27 C1.26
										 264.09 1.4 263.9 1.5 263.73 L1.53 263.7 C1.62 263.57 1.72 263.41 1.79 263.35 C1.83 263.46
										 1.99 263.47 2.28 263.47 C2.35 263.47 2.44 263.48 2.53 263.48 C2.53 263.5 2.52 263.51 2.52
										 263.52 C2.39 263.54 2.25 263.6 2.15 263.71 C2.1 263.76 2.05 263.82 2.01 263.89 C1.98 263.95
										 1.96 264.03 1.95 264.1 C1.91 264.31 2.06 264.47 2.24 264.57 C2.42 264.68 2.68 264.7 2.86
										 264.74 C3.25 264.78 3.5 264.7 3.54 264.44 C3.57 264.23 3.15 263.97 2.92 263.78 C2.92 263.77
										 2.92 263.76 2.93 263.75 C3.02 263.79 3.12 263.83 3.21 263.86 C3.34 263.89 3.47 263.94 3.56
										 263.99 C3.61 264.02 3.65 264.08 3.69 264.19 C3.71 264.24 3.73 264.29 3.75 264.35 C3.77 264.4
										 3.79 264.46 3.82 264.52 C3.88 264.63 3.96 264.75 4.08 264.86 C4.21 264.95 4.36 265.02 4.56
										 265.09 C4.57 265.1 4.58 265.1 4.59 265.1 C4.62 265.1 4.66 265.07 4.67 265.04 C4.69 264.99
										 4.66 264.94 4.62 264.92 C4.43 264.86 4.3 264.79 4.2 264.71 C4.1 264.63 4.03 264.53 3.98
										 264.44 C3.96 264.39 3.94 264.34 3.92 264.28 C3.9 264.23 3.88 264.17 3.86 264.12 C3.82 264.02
										 3.77 263.91 3.65 263.84 C3.55 263.77 3.41 263.72 3.27 263.68 C3.22 263.67 3.17 263.65 3.13
										 263.64 C3.15 263.63 3.18 263.62 3.21 263.6 C3.22 263.59 3.23 263.58 3.25 263.57 C3.77 263.69
										 4.28 263.96 4.57 264.29 C4.61 264.32 4.67 264.33 4.7 264.29 C4.74 264.26 4.74 264.2 4.71
										 264.16 C4.41 263.83 3.9 263.55 3.37 263.41 C3.38 263.38 3.39 263.35 3.39 263.32 C3.6 263.29
										 3.8 263.22 3.98 263.09 C4.18 262.94 4.3 263 4.42 263.15 C4.45 263.2 4.49 263.24 4.52 263.29
										 C4.61 263.43 4.7 263.56 4.82 263.61 C4.83 263.62 4.85 263.62 4.86 263.62 C4.89 263.62 4.93
										 263.61 4.94 263.57 C4.97 263.53 4.95 263.47 4.9 263.45 C4.83 263.41 4.75 263.3 4.67 263.19
										 C4.64 263.14 4.6 263.08 4.56 263.04 C4.49 262.94 4.26 262.66 3.87 262.94 C3.72 263.05 3.56
										 263.11 3.39 263.13 C3.37 263.02 3.33 262.9 3.28 262.79 C3.64 262.74 3.97 262.75 3.77 262.29
										 C3.95 262.28 4.16 262.37 4.35 262.46 C4.49 262.53 4.64 262.61 4.77 262.64 Z" class="st11"/>
						</g>
						<g id="shape45-67" v:mID="45" v:groupContext="shape" transform="translate(11.7305,-9.85786)">
							<title>Sheet.45</title>
							<path d="M6.84 261.95 C6.96 261.95 7.07 261.91 7.16 261.83 C7.26 261.73 7.33 261.58 7.37 261.38 C7.4
										 261.21 7.4 260.98 7.37 260.69 C7.37 260.64 7.33 260.61 7.27 260.61 C7.22 260.62 7.19 260.66
										 7.19 260.71 C7.22 260.98 7.22 261.2 7.19 261.34 C7.16 261.51 7.11 261.63 7.03 261.69 C6.86
										 261.85 6.57 261.75 6.17 261.41 C5.89 261.18 5.59 261.07 5.29 261.03 C5.22 260.92 5.12 260.83
										 4.99 260.77 C4.55 260.58 4.56 260.73 4.44 260.57 C4.44 260.55 4.44 260.53 4.44 260.52 C4.57
										 260.48 4.71 260.45 4.86 260.43 L4.94 260.41 C5.29 260.35 5.63 260.3 5.74 260.06 C5.93 259.66
										 5.63 258.97 5.25 258.1 L5.13 257.83 C4.64 256.74 4.78 256.39 4.84 256.31 C4.87 256.27 4.86
										 256.21 4.82 256.19 C4.78 256.16 4.72 256.17 4.69 256.21 C4.55 256.4 4.49 256.86 4.96 257.9
										 L5.08 258.17 C5.43 258.97 5.73 259.66 5.57 259.99 C5.5 260.13 5.2 260.18 4.91 260.23 L4.83
										 260.25 C4.7 260.27 4.58 260.29 4.46 260.32 C4.46 260.04 4.41 259.7 4.14 259.39 C4.16 259.22
										 4.12 259 3.89 258.69 C3.71 258.46 3.61 258.2 3.51 257.94 C3.47 257.83 3.43 257.72 3.38 257.62
										 C3.2 257.17 2.93 256.92 2.57 256.89 C2.34 256.89 2.2 256.92 2.08 256.95 C1.99 256.97 1.9
										 256.99 1.78 257 C1.67 257.01 1.5 257 1.27 256.98 C0.99 256.95 0.61 256.91 0.09 256.91 C0.04
										 256.91 0 256.95 0 257 C0 257.06 0.04 257.1 0.09 257.1 C0.6 257.1 0.98 257.13 1.26 257.16
										 C1.5 257.18 1.67 257.2 1.8 257.18 C1.93 257.18 2.03 257.15 2.12 257.13 C2.25 257.1 2.36
										 257.07 2.56 257.08 C2.84 257.1 3.05 257.3 3.21 257.69 C3.26 257.79 3.3 257.9 3.34 258 C3.44
										 258.28 3.55 258.56 3.74 258.81 C3.87 258.98 3.93 259.11 3.95 259.22 C3.94 259.22 3.94 259.22
										 3.94 259.21 C3.75 259.08 3.57 258.99 3.4 258.94 C3.22 258.9 3.06 258.89 2.93 258.91 C2.66
										 258.96 2.5 259.13 2.43 259.32 C2.36 259.52 2.38 259.78 2.44 260.04 C2.48 260.17 2.53 260.29
										 2.6 260.42 C2.68 260.53 2.78 260.65 2.91 260.75 C2.96 260.79 3.01 260.82 3.06 260.85 C3.01
										 260.87 2.95 260.89 2.9 260.9 C2.81 260.91 2.62 260.9 2.43 260.88 C2.21 260.86 1.97 260.84
										 1.75 260.85 C1.56 260.84 1.37 260.87 1.23 260.89 L1.17 260.9 C1.02 260.93 0.92 260.97 0.92
										 260.97 C0.87 260.99 0.85 261.04 0.87 261.09 C0.88 261.12 0.92 261.14 0.95 261.14 C0.97 261.14
										 0.98 261.14 0.99 261.14 C0.99 261.14 1.07 261.1 1.2 261.08 L1.26 261.07 C1.39 261.05 1.57
										 261.02 1.75 261.03 C1.97 261.02 2.2 261.05 2.41 261.06 C2.64 261.08 2.82 261.1 2.93 261.08
										 C3.05 261.06 3.17 261.01 3.29 260.93 C3.41 260.97 3.54 260.98 3.66 260.98 C3.59 261.14 3.52
										 261.31 3.47 261.47 C3.35 261.53 3.24 261.58 3.18 261.59 C3.07 261.63 3.02 261.6 2.9 261.51
										 C2.87 261.49 2.84 261.47 2.8 261.45 C2.64 261.35 2.36 261.23 1.81 261.4 C1.77 261.42 1.74
										 261.47 1.75 261.52 C1.77 261.57 1.82 261.6 1.87 261.58 C2.34 261.43 2.56 261.52 2.7 261.6
										 C2.74 261.62 2.77 261.64 2.8 261.66 C2.91 261.75 3.03 261.84 3.23 261.77 C3.28 261.76 3.33
										 261.73 3.4 261.7 C3.4 261.72 3.39 261.73 3.39 261.74 C3.36 261.85 3.33 261.94 3.31 262 C3.15
										 262.42 3.13 262.53 3.21 262.59 C3.29 262.66 3.37 262.6 3.47 262.53 C3.58 262.46 3.73 262.37
										 3.84 262.42 C3.91 262.45 4 262.56 4.05 262.92 C4.06 262.96 4.1 263 4.14 263 C4.14 263 4.15
										 263 4.15 262.99 C4.2 262.99 4.24 262.94 4.23 262.89 C4.18 262.53 4.08 262.32 3.91 262.25
										 C3.72 262.16 3.51 262.29 3.37 262.38 C3.37 262.38 3.37 262.38 3.37 262.38 C3.39 262.32 3.42
										 262.22 3.48 262.07 C3.51 262 3.53 261.9 3.57 261.79 C3.58 261.74 3.6 261.67 3.62 261.61
										 C3.8 261.53 4.02 261.43 4.26 261.35 C4.29 261.5 4.2 261.52 4.38 261.75 C4.5 261.9 4.6 262.02
										 4.68 262.11 C4.76 262.2 4.81 262.25 4.81 262.25 C4.57 262.44 4.78 262.78 5.04 262.97 C5.04
										 263.03 5.04 263.08 5.04 263.13 C5.05 263.42 5.05 263.75 4.96 264 C4.76 264.51 4.57 264.71
										 4.37 264.91 L4.34 264.94 C4.31 264.98 4.31 265.04 4.34 265.07 C4.36 265.09 4.38 265.1 4.41
										 265.1 C4.43 265.1 4.46 265.09 4.47 265.07 L4.5 265.04 C4.71 264.83 4.92 264.61 5.13 264.06
										 C5.23 263.78 5.23 263.43 5.23 263.13 C5.23 263.12 5.23 263.1 5.23 263.09 C5.53 263.23 5.85
										 263.16 5.94 262.9 C5.94 262.89 5.94 262.89 5.94 262.89 C6.09 263.02 6.22 263.15 6.32 263.24
										 L6.38 263.29 C6.5 263.42 6.48 263.52 6.45 263.72 C6.42 263.95 6.37 264.28 6.59 264.77 C6.61
										 264.81 6.67 264.84 6.71 264.81 C6.76 264.79 6.78 264.74 6.76 264.69 C6.56 264.25 6.6 263.97
										 6.64 263.75 C6.67 263.54 6.7 263.35 6.5 263.16 L6.45 263.11 C6.27 262.94 6.12 262.8 5.98
										 262.68 C5.97 262.42 5.81 262.14 5.43 262.07 C5.47 261.88 5.48 261.6 5.43 261.36 C5.41 261.32
										 5.4 261.28 5.39 261.24 C5.62 261.28 5.84 261.37 6.05 261.55 C6.36 261.82 6.63 261.95 6.84
										 261.95 ZM3.7 261.37 C3.75 261.23 3.8 261.1 3.86 260.97 C3.93 260.96 3.99 260.96 4.04 260.95
										 C4.09 261.01 4.13 261.08 4.18 261.16 C4.19 261.17 4.19 261.18 4.19 261.18 C4.01 261.24 3.85
										 261.31 3.7 261.37 Z" class="st11"/>
						</g>
					</g>
				</g>
			</g>
			<g id="group47-69" v:mID="47" v:groupContext="group">
				<title>Sheet.47</title>
				<g id="shape31-70" v:mID="31" v:groupContext="shape">
					<title>Circle</title>
					<v:userDefs>
						<v:ud v:nameU="visVersion" v:val="VT0(15):26"/>
					</v:userDefs>
					<path d="M0 245.26 A19.8425 19.8425 0 1 1 39.69 245.26 A19.8425 19.8425 0 1 1 0 245.26 Z" class="st10"/>
				</g>
				<g id="group19-72" transform="translate(10.5583,-4.47052)" v:mID="19" v:groupContext="group">
					<title>Sheet.19</title>
					<g id="shape20-73" v:mID="20" v:groupContext="shape">
						<title>Sheet.20</title>
						<path d="M5.7 234.36 C3.81 234.35 2.22 235.63 2.21 237.57 L2.21 254.81 C0.88 255.87 0 257.5 0 259.34 C0 262.51
									 2.56 265.1 5.71 265.1 C8.86 265.1 11.42 262.51 11.42 259.34 C11.42 257.49 10.54 255.86 9.2 254.8
									 C9.14 248.8 9.28 243.26 9.19 237.57 C9.2 235.63 7.61 234.35 5.7 234.36 L5.7 234.36 ZM5.69 235.64
									 C6.66 235.63 7.93 236.27 7.92 237.57 C7.94 243.5 7.93 249.07 7.93 255.09 C7.93 255.3 8.04 255.51
									 8.21 255.62 C9.38 256.43 10.15 257.79 10.15 259.34 C10.15 261.82 8.17 263.82 5.71 263.82 C3.25
									 263.82 1.27 261.82 1.27 259.34 C1.27 257.8 2.04 256.43 3.2 255.62 C3.37 255.51 3.48 255.31 3.48
									 255.1 L3.48 237.57 C3.49 236.27 4.44 235.63 5.69 235.64 L5.69 235.64 ZM4.37 237.58 C4.21 237.59
									 4.07 237.77 4.08 237.94 C4.1 238.1 4.28 238.23 4.44 238.22 L6.98 238.22 C7.15 238.22 7.3 238.06
									 7.3 237.9 C7.3 237.73 7.15 237.57 6.98 237.58 C6.11 237.58 5.23 237.58 4.37 237.58 ZM5.64 238.86
									 C5.47 238.87 5.34 239.05 5.35 239.22 C5.37 239.38 5.54 239.51 5.71 239.5 L6.98 239.5 C7.15 239.5
									 7.3 239.35 7.3 239.18 C7.3 239.01 7.15 238.85 6.98 238.86 C6.54 238.86 6.08 238.86 5.64 238.86
									 ZM4.37 240.14 C4.21 240.15 4.07 240.33 4.08 240.5 C4.1 240.66 4.28 240.8 4.44 240.78 L6.98 240.78
									 C7.15 240.78 7.3 240.63 7.3 240.46 C7.3 240.29 7.15 240.13 6.98 240.14 C6.11 240.14 5.23 240.14
									 4.37 240.14 ZM5.64 241.42 C5.47 241.44 5.34 241.61 5.35 241.78 C5.37 241.95 5.54 242.08 5.71
									 242.06 L6.98 242.06 C7.15 242.06 7.3 241.91 7.3 241.74 C7.3 241.57 7.15 241.41 6.98 241.42 C6.54
									 241.42 6.08 241.42 5.64 241.42 ZM13.01 241.74 C13.01 244.41 13.01 247.07 13.01 249.74 C12.21
									 249.74 11.41 249.74 10.62 249.74 C11.98 252.03 13.41 254.45 14.59 256.42 C16.06 253.96 17.23
									 252 18.57 249.74 C17.77 249.74 16.98 249.74 16.18 249.74 C16.18 247.07 16.18 244.41 16.18 241.74
									 C15.1 241.74 13.95 241.74 13.01 241.74 ZM4.37 242.7 C4.21 242.72 4.07 242.89 4.08 243.06 C4.1
									 243.23 4.28 243.36 4.44 243.34 L6.98 243.34 C7.15 243.34 7.3 243.19 7.3 243.02 C7.3 242.85 7.15
									 242.7 6.98 242.7 C6.11 242.7 5.23 242.7 4.37 242.7 ZM5.64 243.98 C5.47 244 5.34 244.17 5.35
									 244.34 C5.37 244.51 5.54 244.64 5.71 244.62 L6.98 244.62 C7.15 244.62 7.3 244.47 7.3 244.3 C7.3
									 244.13 7.15 243.98 6.98 243.98 C6.54 243.98 6.08 243.98 5.64 243.98 ZM4.37 245.26 C4.21 245.28
									 4.07 245.45 4.08 245.62 C4.1 245.79 4.28 245.92 4.44 245.9 L6.98 245.9 C7.15 245.9 7.3 245.75
									 7.3 245.58 C7.3 245.41 7.15 245.26 6.98 245.26 C6.11 245.26 5.23 245.26 4.37 245.26 ZM5.64 246.54
									 C5.47 246.56 5.34 246.73 5.35 246.9 C5.37 247.07 5.54 247.2 5.71 247.18 L6.98 247.18 C7.15 247.18
									 7.3 247.03 7.3 246.86 C7.3 246.69 7.15 246.54 6.98 246.54 C6.54 246.54 6.08 246.54 5.64 246.54
									 ZM4.37 247.82 C4.21 247.84 4.07 248.01 4.08 248.18 C4.1 248.35 4.28 248.48 4.44 248.46 L6.98
									 248.46 C7.15 248.46 7.3 248.31 7.3 248.14 C7.3 247.97 7.15 247.82 6.98 247.82 C6.11 247.82 5.23
									 247.82 4.37 247.82 ZM4.35 249.45 C4.13 249.67 4.12 249.9 4.12 250.06 L4.12 256.59 C3.19 257.15
									 2.54 258.15 2.54 259.33 C2.54 261.09 3.97 262.53 5.71 262.53 C7.45 262.53 8.88 261.09 8.88 259.33
									 C8.88 258.16 8.23 257.16 7.3 256.6 L7.3 250.06 C7.3 249.83 7.16 249.6 6.96 249.49 C6.76 249.38
									 6.49 249.4 6.31 249.53 C5.8 249.72 5.43 249.33 5.04 249.25 C4.77 249.2 4.55 249.32 4.35 249.45
									 Z" class="st12"/>
					</g>
				</g>
			</g>
			<g id="group49-75" transform="translate(48.189,-5.68434E-14)" v:mID="49" v:groupContext="group">
				<title>Sheet.49</title>
				<g id="shape46-76" v:mID="46" v:groupContext="shape">
					<title>Circle.46</title>
					<v:userDefs>
						<v:ud v:nameU="visVersion" v:val="VT0(15):26"/>
					</v:userDefs>
					<path d="M0 245.26 A19.8425 19.8425 0 1 1 39.69 245.26 A19.8425 19.8425 0 1 1 0 245.26 Z" class="st10"/>
				</g>
				<g id="group12-78" transform="translate(9.92126,-4.25197)" v:mID="12" v:groupContext="group">
					<title>2</title>
					<g id="shape13-79" v:mID="13" v:groupContext="shape">
						<title>Sheet.13</title>
						<path d="M19.84 249.51 C19.84 243.4 15.49 241 11.61 239.22 C13.83 238.17 15.59 236.86 15.59 234.63 a0.708661
									 0.708661 -180 0 0 -1.41732 0 C14.17 236.31 12.57 237.25 9.92 238.45 C7.27 237.25 5.67 236.31
									 5.67 234.63 a0.708661 0.708661 -180 0 0 -1.41732 0 C4.25 236.86 6.01 238.17 8.23 239.22 C4.35
									 241 0 243.4 0 249.51 C0 255.62 4.35 258.01 8.23 259.8 C6.01 260.85 4.25 262.15 4.25 264.39 a0.708661
									 0.708661 -180 1 0 1.41732 0 C5.67 262.7 7.27 261.77 9.92 260.56 C12.57 261.77 14.17 262.7 14.17
									 264.39 a0.708661 0.708661 -180 1 0 1.41732 0 C15.59 262.15 13.83 260.89 11.61 259.8 C15.49 258.01
									 19.84 255.62 19.84 249.51 ZM10.12 258.92 L9.92 259 L9.72 258.92 C5.84 257.18 1.42 255.18 1.42
									 249.51 C1.42 243.84 5.84 241.84 9.72 240.1 L9.92 240.01 L10.12 240.1 C14 241.84 18.43 243.84
									 18.43 249.51 C18.43 255.18 14 257.18 10.12 258.92 Z" class="st13"/>
					</g>
					<g id="shape14-81" v:mID="14" v:groupContext="shape" transform="translate(7.79528,-28.3465)">
						<title>Sheet.14</title>
						<path d="M0.71 265.1 L3.54 265.1 a0.708661 0.708661 -180 0 0 0 -1.41732 L0.71 263.68 a0.708661 0.708661 -180
									 0 0 -1.02141E-14 1.41732 Z" class="st13"/>
					</g>
					<g id="shape15-83" v:mID="15" v:groupContext="shape" transform="translate(7.79528,-1.41732)">
						<title>Sheet.15</title>
						<path d="M3.54 263.68 L0.71 263.68 a0.708661 0.708661 -180 0 0 -1.02141E-14 1.41732 L3.54 265.1 a0.708661
									 0.708661 -180 0 0 0 -1.41732 Z" class="st13"/>
					</g>
					<g id="shape16-85" v:mID="16" v:groupContext="shape" transform="translate(5.66929,-19.8425)">
						<title>Sheet.16</title>
						<path d="M0.71 265.1 L7.8 265.1 a0.708661 0.708661 -180 0 0 0 -1.41732 L0.71 263.68 a0.708661 0.708661 -180
									 0 0 -9.54792E-15 1.41732 Z" class="st13"/>
					</g>
					<g id="shape17-87" v:mID="17" v:groupContext="shape" transform="translate(5.66929,-9.92126)">
						<title>Sheet.17</title>
						<path d="M7.8 263.68 L0.71 263.68 a0.708661 0.708661 -180 0 0 -1.02141E-14 1.41732 L7.8 265.1 a0.708661 0.708661
									 -180 0 0 0 -1.41732 Z" class="st13"/>
					</g>
					<g id="shape18-89" v:mID="18" v:groupContext="shape" transform="translate(3.54331,-14.8819)">
						<title>Sheet.18</title>
						<path d="M12.05 263.68 L0.71 263.68 a0.708661 0.708661 -180 0 0 -1.0103E-14 1.41732 L12.05 265.1 a0.708661
									 0.708661 -180 0 0 0 -1.41732 Z" class="st13"/>
					</g>
				</g>
			</g>
			<g id="group60-91" transform="translate(96.378,0)" v:mID="60" v:groupContext="group">
				<title>Sheet.60</title>
				<g id="shape48-92" v:mID="48" v:groupContext="shape">
					<title>Circle</title>
					<v:userDefs>
						<v:ud v:nameU="visVersion" v:val="VT0(15):26"/>
					</v:userDefs>
					<path d="M0 245.26 A19.8425 19.8425 0 1 1 39.69 245.26 A19.8425 19.8425 0 1 1 0 245.26 Z" class="st10"/>
				</g>
				<g id="group50-94" transform="translate(6.94488,-5.95276)" v:mID="50" v:groupContext="group">
					<v:userDefs/>
					<title>Glyph science evolutionay biology</title>
					<g id="shape51-95" v:mID="51" v:groupContext="shape" transform="translate(0.00465442,-0.00176134)">
						<title>Sheet.51</title>
						<path d="M0.68 265.1 L1.83 265.1 a0.348746 0.348746 -180 0 0 0.342288 -0.254221 a0.337004 0.337004 -180 0
									 0 -0.149127 -0.367534 L1.5 264.15 a0.0639955 0.0639955 0 0 1 -0.00939384 -0.101571 C1.49 264.05
									 2.65 262.96 3.14 262.49 a0.234846 0.234846 -180 0 0 -0.0334655 -0.36636 C2.77 261.91 2.37 261.64
									 1.95 261.35 a0.199032 0.199032 -180 0 0 -0.310584 0.141495 L1.61 261.72 a0.939384 0.939384 0
									 0 1 -0.163805 0.431529 L0.13 264.01 a0.719216 0.719216 -180 0 0 -0.133275 0.334068 a0.681053
									 0.681053 -180 0 0 0.676943 0.757965 Z" class="st14"/>
					</g>
					<g id="shape52-97" v:mID="52" v:groupContext="shape" transform="translate(0.170643,0)">
						<title>Sheet.52</title>
						<path d="M9.53 255.07 L10.3 254.92 a0.674595 0.674595 -180 0 0 0.528403 -0.5149 A4.48791 4.48791 -180 0 0
									 10.92 253.43 a0.619406 0.619406 -180 0 0 -0.234846 -0.480847 a0.619406 0.619406 0 0 1 -0.234846
									 -0.420961 L10.37 251.83 a0.621755 0.621755 -180 0 0 -0.528403 -0.547778 C7.8 250.98 7.08 252.3
									 6.86 252.87 a0.332307 0.332307 0 0 1 -0.349333 0.214884 A4.98343 4.98343 -180 0 0 5.94 253.05
									 A2.38427 2.38427 -180 0 0 4.41 253.6 L0.74 256.65 C0.36 256.89 0.13 257.32 0.01 257.73 A1.5265
									 1.5265 -180 0 0 0.5 259.37 C0.81 259.62 1.21 259.92 1.62 260.21 C2.27 260.67 2.97 261.13 3.47
									 261.46 C3.65 261.57 3.81 261.67 3.93 261.75 A1.18245 1.18245 0 0 1 4.38 262.26 C4.77 263.14
									 4.6 264.11 4.55 264.3 a0.352269 0.352269 -180 0 0 -0.00763249 0.0745636 L4.55 264.49 a0.612361
									 0.612361 -180 0 0 0.612361 0.612361 L6.3 265.1 a0.369882 0.369882 -180 0 0 0.190225 -0.687512
									 L6.12 264.19 a0.371057 0.371057 0 0 1 -0.176134 -0.376341 A10.4166 10.4166 -180 0 0 6.02 261.24
									 A1.54353 1.54353 -180 0 0 5.66 260.38 C4.81 259.38 4.02 258.62 4.02 258.62 C5.04 258.1 6.6 257.48
									 6.6 257.48 C6.76 258.26 6.94 259.21 7.03 259.72 A1.14487 1.14487 -180 0 0 7.3 260.27 C8.2 261.27
									 8.74 262.79 8.98 263.59 a0.592399 0.592399 0 0 1 -0.352269 0.720977 L8.51 264.36 a0.381038 0.381038
									 -180 0 0 0.139146 0.736242 L9.4 265.09 a0.917073 0.917073 -180 0 0 0.916486 -0.926467 C10.29
									 261.55 9.31 260.12 8.9 259.64 a0.711583 0.711583 0 0 1 -0.165566 -0.481434 L8.83 255.91 a0.880672
									 0.880672 0 0 1 0.702777 -0.831355 Z" class="st14"/>
					</g>
					<g id="shape53-99" v:mID="53" v:groupContext="shape" transform="translate(18.4418,-22.3164)">
						<title>Sheet.53</title>
						<path d="M0.61 263.37 A2.79114 2.79114 -180 0 0 1.54 264.33 L2.66 265.05 a0.364598 0.364598 -180 0 0 0.512551
									 -0.124468 C3.38 264.57 3.72 263.99 3.97 263.63 a0.371057 0.371057 -180 0 0 0.0217233 -0.379863
									 A1.54118 1.54118 -180 0 0 3.85 263.04 a0.364598 0.364598 0 0 1 -0.066344 -0.293557 C3.87 262.3
									 4.01 261.06 2.98 260.55 A1.6815 1.6815 -180 0 0 1.7 260.47 L1.68 260.48 C0.5 260.88 0 262.28
									 0.61 263.37 Z" class="st14"/>
					</g>
					<g id="shape54-101" v:mID="54" v:groupContext="shape" transform="translate(16.5672,-0.194922)">
						<title>Sheet.54</title>
						<path d="M10.19 263.68 A9.80893 9.80893 0 0 1 8.71 263.5 a0.554824 0.554824 0 0 1 -0.446794 -0.487305 C8.15
									 261.89 7.81 259.9 7.65 259.02 A2.9573 2.9573 -180 0 0 7.4 258.24 C6.69 256.77 4.87 252.65 4.87
									 252.65 A6.5616 6.5616 0 0 1 4.52 251 A8.02351 8.02351 0 0 1 4.7 248.5 C5.17 246.48 4.94 245.54
									 4.94 245.54 C4.49 243.88 3.64 243.21 3.05 242.94 a0.958171 0.958171 -180 0 0 -1.1484 0.273008
									 C1.34 243.91 1.12 244.99 1.04 245.53 A3.84678 3.84678 0 0 1 0.85 246.26 L0.12 248.29 A1.941
									 1.941 -180 0 0 0.1 249.55 C0.34 250.31 0.62 251.22 0.79 251.76 A1.52063 1.52063 0 0 1 0.81 252.58
									 A4.22136 4.22136 -180 0 0 0.71 253.09 A1.44313 1.44313 -180 0 0 0.77 253.75 A1.29165 1.29165
									 -180 0 0 1.27 254.41 a0.86893 0.86893 -180 0 0 0.560695 -0.066344 C2.5 254.01 2.21 252.96 2.2
									 252.95 C2.2 252.94 2.2 252.93 2.19 252.92 L1.55 249.76 A3.07237 3.07237 0 0 1 1.61 248.29 L2.35
									 245.74 a0.423897 0.423897 0 0 1 0.563043 -0.27477 a0.436226 0.436226 0 0 1 0.245414 0.528403
									 L2.42 248.53 A2.22223 2.22223 -180 0 0 2.38 249.59 L3.02 252.73 C3.17 253.25 3.22 254.23 2.6
									 254.83 a0.234846 0.234846 -180 0 0 -0.0170263 0.319978 L4.87 257.95 A1.82593 1.82593 0 0 1 5.27
									 258.89 L5.3 259.16 A1.83239 1.83239 -180 0 0 5.56 259.91 L5.98 260.58 A7.04949 7.04949 0 0 1
									 6.77 262.34 C7.03 263.24 7.24 264.17 7.36 264.73 a0.500809 0.500809 -180 0 0 0.658743 0.365185
									 L10.27 264.29 a0.324087 0.324087 -180 0 0 0.219581 -0.274183 a0.309997 0.309997 -180 0 0 -0.300016
									 -0.334655 Z" class="st14"/>
					</g>
					<g id="shape55-103" v:mID="55" v:groupContext="shape" transform="translate(14.6001,-0.330546)">
						<title>Sheet.55</title>
						<path d="M4.68 257.63 a0.5331 0.5331 -180 0 0 -0.0933513 -0.584179 L3.38 255.74 a0.204903 0.204903 -180 0
									 0 -0.352269 0.120359 L3 256.23 A2.2739 2.2739 0 0 1 2.4 257.56 A2.27859 2.27859 -180 0 0 1.84
									 258.66 L1.68 259.49 C1.46 260.71 0.45 262.66 0.45 262.66 L0.09 263.2 a0.592399 0.592399 -180
									 0 0 0.140908 0.801412 C0.85 264.47 1.65 264.88 2.1 265.1 a0.331133 0.331133 -180 0 0 0.385734
									 -0.524294 A7.14695 7.14695 0 0 1 1.89 263.84 a0.645826 0.645826 0 0 1 -0.0270073 -0.709235 C3.05
									 261.15 4.27 258.54 4.68 257.63 Z" class="st14"/>
					</g>
					<g id="shape56-105" v:mID="56" v:groupContext="shape" transform="translate(21.8233,-11.9904)">
						<title>Sheet.56</title>
						<path d="M1.09 264.74 a0.735068 0.735068 -180 0 0 1.02452 0.285338 C2.26 264.93 2.39 264.78 2.45 264.52 A1.14194
									 1.14194 -180 0 0 2.38 263.82 A2.89624 2.89624 -180 0 0 1.94 263.12 A1.22237 1.22237 0 0 1 1.74
									 262.78 C1.59 262.38 1.2 261.42 0.71 260.42 a0.249524 0.249524 -180 0 0 -0.465582 0.0493177 C0.17
									 260.74 0.09 261.06 0.02 261.35 a0.718629 0.718629 -180 0 0 0.081609 0.554824 L0.89 263.2 a0.753268
									 0.753268 0 0 1 0.0980482 0.51079 C0.94 263.98 0.92 264.41 1.09 264.74 Z" class="st14"/>
					</g>
					<g id="shape57-107" v:mID="57" v:groupContext="shape" transform="translate(-128.181,19.3015) rotate(-29.71)">
						<title>Sheet.57</title>
						<path d="M0 264.77 a0.327618 0.327618 -180 0 0 0.32761 0.32761 L2.03 265.1 a0.327618 0.327618 -180 0 0 0.32761
									 -0.32761 L2.36 263.07 a0.327618 0.327618 -180 0 0 -0.32761 -0.32761 L0.33 262.74 a0.327618 0.327618
									 -180 0 0 -0.32761 0.32761 L0 264.77 Z" class="st14"/>
					</g>
					<g id="shape58-109" v:mID="58" v:groupContext="shape" transform="translate(-130.217,20.463) rotate(-29.71)">
						<title>Sheet.58</title>
						<path d="M0 264.77 a0.327618 0.327618 -180 0 0 0.32761 0.32761 L0.85 265.1 a0.327618 0.327618 -180 0 0 0.32761
									 -0.32761 L1.18 263.07 a0.327618 0.327618 -180 0 0 -0.32761 -0.32761 L0.33 262.74 a0.327618 0.327618
									 -180 0 0 -0.32761 0.32761 L0 264.77 Z" class="st14"/>
					</g>
					<g id="shape59-111" v:mID="59" v:groupContext="shape" transform="translate(5.33388,-17.4872)">
						<title>Sheet.59</title>
						<path d="M8.68 261.25 L8.95 261.72 a0.32761 0.32761 -180 0 0 0.561869 0.0117423 L11.88 257.96 a0.327023 0.327023
									 -180 0 0 -0.286512 -0.501396 L7.14 257.58 a0.32761 0.32761 -180 0 0 -0.275357 0.490241 L7.18
									 258.63 a0.32761 0.32761 0 0 1 -0.12212 0.447382 L0.15 263.02 a0.32761 0.32761 -180 0 0 -0.12212
									 0.447382 L0.88 264.94 a0.327023 0.327023 -180 0 0 0.446794 0.12212 L8.23 261.12 a0.327023 0.327023
									 0 0 1 0.446207 0.123881 Z" class="st14"/>
					</g>
				</g>
			</g>
		</g>
		<g id="shape90-113" v:mID="90" v:groupContext="shape" v:layerMember="1" transform="translate(253.776,-122.119)">
			<title>Dynamic connector.90</title>
			<path d="M0 258.01 L73.03 258.01" class="st15"/>
		</g>
		<g id="shape93-116" v:mID="93" v:groupContext="shape" transform="translate(265.87,-118.773)">
			<title>Sheet.93</title>
			<desc>Domain Barrier</desc>
			<v:textBlock v:margins="rect(4,4,4,4)" v:tabSpace="42.5197"/>
			<v:textRect cx="69.2835" cy="255.098" width="138.57" height="20"/>
			<rect x="0" y="245.098" width="138.567" height="20" class="st16"/>
			<text x="4" y="258.7" class="st17" v:langID="1033"><v:paragraph/><v:tabList/>Domain Barrier</text>		</g>
		<g id="group95-119" transform="translate(215.602,-24.12)" v:mID="95" v:groupContext="group">
			<title>Untitled-1</title>
			<g id="shape96-120" v:mID="96" v:groupContext="shape" transform="translate(11.2383,-13.6741)">
				<title>Sheet.96</title>
				<path d="M0 257.85 A1.36921 1.36921 -180 0 0 1.38 259.04 L2.38 259.04 a0.304947 0.304947 0 0 1 0.304947 0.304947
							 L2.69 262.36 a0.304947 0.304947 -180 0 0 0.304947 0.304947 L5.6 262.66 a0.304947 0.304947 0 0 1 0.304947
							 0.304947 L5.91 263.53 A1.66196 1.66196 -180 0 0 8.75 264.75 A1.66806 1.66806 -180 0 0 9.23 263.57 L9.23
							 262.96 a0.304947 0.304947 0 0 1 0.304947 -0.304947 L12.33 262.66 a0.304947 0.304947 -180 0 0 0.304947
							 -0.304947 L12.63 259.67 a0.304947 0.304947 -180 0 0 -0.304947 -0.304947 L11.51 259.36 A1.68331 1.68331
							 0 0 1 9.81 257.84 A1.65891 1.65891 0 0 1 11.47 256.03 L12.38 256.03 a0.304947 0.304947 -180 0 0 0.304947
							 -0.320194 L12.69 253.01 a0.304947 0.304947 -180 0 0 -0.304947 -0.304947 L9.58 252.71 a0.304947 0.304947
							 0 0 1 -0.304947 -0.304947 L9.28 251.68 A1.66196 1.66196 -180 0 0 5.96 251.68 L5.96 252.38 a0.304947
							 0.304947 0 0 1 -0.304947 0.304947 L3.02 252.68 a0.304947 0.304947 -180 0 0 -0.304947 0.304947 L2.71
							 256 a0.304947 0.304947 0 0 1 -0.304947 0.304947 L1.34 256.31 A1.34787 1.34787 -180 0 0 -0 257.85 Z"
						class="st3"/>
			</g>
			<g id="shape97-122" v:mID="97" v:groupContext="shape" transform="translate(0.287687,-1.88821)">
				<title>Sheet.97</title>
				<path d="M15.25 256.95 A1.66196 1.66196 -180 0 0 13.59 255.29 L13 255.29 a0.304947 0.304947 0 0 1 -0.304947 -0.304947
							 L12.7 252.28 a0.304947 0.304947 -180 0 0 -0.304947 -0.304947 L9.95 251.97 a0.304947 0.304947 -180 0
							 0 -0.304947 0.304947 L9.65 252.32 A2.00655 2.00655 0 0 1 7.82 254.33 A1.97911 1.97911 0 0 1 5.66 252.36
							 L5.66 252.28 a0.304947 0.304947 -180 0 0 -0.304947 -0.304947 L3 251.97 a0.304947 0.304947 -180 0 0 -0.304947
							 0.304947 L2.69 254.97 a0.304947 0.304947 0 0 1 -0.320194 0.304947 L1.66 255.28 A1.66196 1.66196 -180
							 1 0 1.66 258.6 L2.36 258.6 a0.304947 0.304947 0 0 1 0.320194 0.304947 L2.68 261.61 a0.304947 0.304947
							 -180 0 0 0.304947 0.304947 L5.68 261.91 a0.304947 0.304947 0 0 1 0.304947 0.304947 L5.99 263.44 A1.66196
							 1.66196 -180 0 0 7.65 265.1 A1.66196 1.66196 -180 0 0 9.34 263.49 L9.34 262.27 a0.304947 0.304947 0
							 0 1 0.304947 -0.304947 L12.35 261.97 a0.304947 0.304947 -180 0 0 0.304947 -0.304947 L12.66 258.93 a0.304947
							 0.304947 0 0 1 0.304947 -0.304947 L13.57 258.63 A1.66196 1.66196 -180 0 0 15.25 256.95 Z" class="st3"/>
			</g>
			<g id="shape98-124" v:mID="98" v:groupContext="shape" transform="translate(14.4723,0)">
				<title>Sheet.98</title>
				<path d="M13.78 258.25 a0.304947 0.304947 -180 0 0 1.77636E-14 -0.448272 L11.83 255.93 a0.304947 0.304947 0 0 1 0
							 -0.448272 L12.24 255.05 A1.66196 1.66196 -180 0 0 9.85 252.74 L9.43 253.17 a0.323244 0.323244 0 0 1
							 -0.451322 0 L7.05 251.32 a0.320194 0.320194 -180 0 0 -0.451322 0 L4.91 253.07 a0.320194 0.320194 -180
							 0 0 -6.21725E-15 0.448272 L4.97 253.58 A1.97606 1.97606 0 1 1 2.23 256.42 L2.17 256.37 a0.320194 0.320194
							 -180 0 0 -0.451322 0 L0.09 258.03 a0.320194 0.320194 -180 0 0 -6.57807E-15 0.451322 L2.04 260.36 a0.320194
							 0.320194 0 0 1 -2.22045E-15 0.451322 L1.56 261.32 A1.66196 1.66196 -180 1 0 3.95 263.63 L4.44 263.12
							 a0.304947 0.304947 0 0 1 0.448272 0 L6.83 265 a0.304947 0.304947 -180 0 0 0.448272 0 L9.11 263.09 a0.304947
							 0.304947 0 0 1 0.448272 0 L10.03 263.56 A1.66196 1.66196 -180 0 0 12.34 261.17 L11.86 260.7 a0.304947
							 0.304947 0 0 1 1.77636E-15 -0.448272 L13.78 258.25 Z" class="st3"/>
			</g>
			<g id="shape99-126" v:mID="99" v:groupContext="shape" transform="translate(-1.41887E-13,-13.8726)">
				<title>Sheet.99</title>
				<path d="M1.73 259.55 L2.62 259.55 a0.304947 0.304947 0 0 1 0.304947 0.304947 L2.92 262.55 a0.304947 0.304947 -180
							 0 0 0.304947 0.304947 L6.24 262.86 a0.304947 0.304947 0 0 1 0.304947 0.304947 L6.55 263.74 A1.35397
							 1.35397 -180 0 0 7.72 265.1 A1.32957 1.32957 -180 0 0 9.2 263.78 L9.2 263.17 a0.304947 0.304947 0 0
							 1 0.304947 -0.304947 L12.56 262.86 a0.304947 0.304947 -180 0 0 0.304947 -0.304947 L12.86 260.19 a0.304947
							 0.304947 -180 0 0 -0.304947 -0.304947 L12.03 259.88 A1.97911 1.97911 0 0 1 10.07 257.72 A2.00655 2.00655
							 0 0 1 12.07 255.91 L12.58 255.91 a0.304947 0.304947 -180 0 0 0.304947 -0.304947 L12.89 253.21 a0.304947
							 0.304947 -180 0 0 -0.304947 -0.304947 L9.89 252.91 a0.304947 0.304947 0 0 1 -0.304947 -0.304947 L9.59
							 251.88 A1.66196 1.66196 -180 1 0 6.26 251.88 L6.26 252.58 a0.304947 0.304947 0 0 1 -0.304947 0.304947
							 L3.23 252.88 a0.304947 0.304947 -180 0 0 -0.304947 0.304947 L2.92 255.89 a0.304947 0.304947 0 0 1 -0.304947
							 0.320194 L1.73 256.21 A1.66196 1.66196 -180 1 0 1.73 259.53 L1.73 259.55 Z" class="st3"/>
			</g>
		</g>
	</g>
</svg>
